<?xml version="1.0" encoding="utf-8"?>
<!-- Generator: Adobe Illustrator 16.0.0, SVG Export Plug-In . SVG Version: 6.00 Build 0)  -->
<!DOCTYPE svg PUBLIC "-//W3C//DTD SVG 1.1//EN" "http://www.w3.org/Graphics/SVG/1.1/DTD/svg11.dtd">
<svg version="1.1" id="Layer_1" xmlns="http://www.w3.org/2000/svg" xmlns:xlink="http://www.w3.org/1999/xlink" x="0px" y="0px"
	 width="800px" height="1200px" viewBox="0 0 21.33 32" enable-background="new 0 0 800 1200" xml:space="preserve">
<g fill="#F6E0AE">
	<g>
		<path fill-rule="evenodd" clip-rule="evenodd" d="M2.594,6.449C2.7,6.365,2.896,6.296,3.12,6.233
			c0.388-0.109,0.526-0.249,0.671-0.388c0.114-0.111,0.23-0.221,0.353-0.331c0.066-0.06,0.235-0.088,0.454-0.103
			c0.48-0.032,0.959-0.018,1.439-0.004c0.226,0.006,0.451,0.013,0.705,0.021C6.695,5.441,6.663,5.451,6.628,5.46
			C6.306,5.544,6,5.635,5.856,5.75C5.757,5.83,5.606,5.896,5.43,5.962c-0.249,0.095-0.432,0.2-0.511,0.314
			c-0.04,0.058-0.028,0.12-0.008,0.179c0.032,0.095,0.059,0.19-0.054,0.282c-0.216,0.174-0.105,0.34,0.109,0.507
			c0.152,0.118,0.361,0.225,0.68,0.315c0.032,0.009,0.06,0.02,0.09,0.029C5.728,7.591,5.722,7.595,5.717,7.595
			C5.23,7.598,4.744,7.602,4.258,7.601c-0.109,0-0.222-0.012-0.327-0.022C3.775,7.563,3.669,7.533,3.643,7.487
			C3.571,7.36,3.515,7.233,3.422,7.108C3.365,7.03,3.269,6.953,3.161,6.878C2.984,6.754,2.785,6.633,2.594,6.511
			C2.594,6.49,2.594,6.47,2.594,6.449z"/>
		<path fill-rule="evenodd" clip-rule="evenodd" d="M13.438,8.037c0.009-0.109,0.077-0.212,0.196-0.312
			c0.015-0.013,0.066-0.024,0.108-0.034c0.357-0.082,0.719-0.163,1-0.266c0.301-0.111,0.481-0.234,0.496-0.373
			c0.017-0.161,0.023-0.322-0.128-0.48c-0.032-0.033,0-0.071,0.018-0.106c0.079-0.16-0.063-0.305-0.389-0.438
			c-0.064-0.026-0.083-0.051-0.072-0.082c0.03-0.089,0.042-0.179,0.061-0.268c0.003-0.014,0-0.027,0-0.044
			c0.215,0.043,0.406,0.087,0.616,0.123c0.255,0.043,0.518,0.085,0.795,0.116c0.358,0.04,0.623,0.107,0.834,0.189
			c0.206,0.08,0.208,0.175,0.116,0.263c-0.18,0.174-0.158,0.349-0.118,0.526c0.021,0.09-0.037,0.174-0.172,0.257
			C16.63,7.21,16.447,7.313,16.336,7.42c-0.095,0.093-0.097,0.192-0.141,0.289c-0.021,0.047-0.042,0.094-0.064,0.141
			c-0.024,0.05-0.125,0.086-0.305,0.1c-0.308,0.024-0.616,0.053-0.931,0.064c-0.458,0.016-0.923,0.018-1.386,0.026
			C13.492,8.04,13.474,8.038,13.438,8.037z"/>
		<path fill-rule="evenodd" clip-rule="evenodd" d="M9.24,5.689c-0.298,0.047-0.565,0.087-0.825,0.13
			C7.76,5.929,7.282,6.079,7.068,6.282c-0.18,0.171-0.297,0.344-0.207,0.523C6.88,6.841,6.822,6.88,6.81,6.918
			c-0.047,0.143-0.018,0.284,0.166,0.42c0.232,0.173,0.697,0.277,1.338,0.324c0.335,0.024,0.683,0.035,1.03,0.051
			C9.13,7.734,8.909,7.763,8.675,7.776c-0.863,0.048-1.656,0.009-2.315-0.16c-0.34-0.087-0.696-0.174-0.873-0.294
			C5.328,7.213,5.207,7.1,5.11,6.985C5.07,6.937,5.109,6.88,5.159,6.83C5.29,6.699,5.339,6.567,5.267,6.431
			C5.178,6.266,5.461,6.13,5.78,6c0.117-0.047,0.268-0.089,0.407-0.133c0.15-0.047,0.338-0.077,0.561-0.092
			C7.099,5.75,7.449,5.723,7.802,5.699C8.264,5.668,8.731,5.679,9.24,5.689z"/>
		<path fill-rule="evenodd" clip-rule="evenodd" d="M6.246,5.318c0.133-0.069,0.252-0.13,0.364-0.191
			c0.064-0.036,0.124-0.072,0.168-0.109C6.951,4.87,7.331,4.782,7.85,4.727c0.743-0.079,1.476-0.073,2.209,0.006
			c0.206,0.022,0.417,0.042,0.622,0.064c0.677,0.076,1.382,0.102,2.11,0.088c0.394-0.007,0.729,0.025,0.982,0.108
			c0.336,0.111,0.579,0.233,0.571,0.383c-0.008,0.151-0.002,0.302-0.002,0.464c-0.036-0.014-0.055-0.02-0.069-0.027
			c-0.117-0.059-0.225-0.118-0.351-0.175c-0.261-0.118-0.641-0.204-1.056-0.28c-0.584-0.106-1.188-0.204-1.903-0.225
			c-0.325-0.01-0.661-0.006-0.988,0.003C9.425,5.151,8.878,5.173,8.333,5.196C7.969,5.211,7.641,5.254,7.331,5.309
			C7.264,5.32,7.175,5.328,7.096,5.328C6.819,5.327,6.543,5.322,6.246,5.318z"/>
		<path fill-rule="evenodd" clip-rule="evenodd" d="M13.141,7.811c-0.034,0.111-0.055,0.218-0.102,0.325
			c-0.036,0.081-0.195,0.143-0.448,0.191c-0.414,0.079-0.86,0.103-1.357,0.086c-0.408-0.014-0.82-0.019-1.231-0.026
			C9.609,8.38,9.233,8.407,8.86,8.436C8.3,8.48,7.738,8.499,7.177,8.439C6.724,8.391,6.306,8.33,6.099,8.201
			C6.024,8.154,5.978,8.104,5.92,8.055C5.843,7.99,5.78,7.922,5.687,7.858c-0.08-0.055-0.192-0.107-0.298-0.165
			C5.631,7.697,5.883,7.7,6.135,7.705c0.029,0,0.06,0.007,0.083,0.013c0.421,0.106,0.945,0.146,1.493,0.17
			c0.07,0.003,0.141,0.006,0.206,0.013c1.268,0.132,2.554,0.155,3.865,0.052C12.249,7.917,12.717,7.881,13.141,7.811z"/>
		<path fill-rule="evenodd" clip-rule="evenodd" d="M11.639,5.897c-0.37,0.004-0.734,0.004-1.096,0.014
			c-0.445,0.012-0.829,0.063-1.101,0.163C9.204,6.161,8.96,6.248,8.755,6.341c-0.107,0.049-0.142,0.11-0.2,0.167
			C8.518,6.544,8.5,6.583,8.471,6.62C8.385,6.73,8.496,6.826,8.799,6.902c0.232,0.059,0.517,0.062,0.8,0.037
			c0.405-0.035,0.768-0.093,1.099-0.165c0.429-0.092,0.477-0.32-0.287-0.384c-0.213-0.018-0.44-0.023-0.673-0.041
			c0.251-0.013,0.501-0.028,0.754-0.038c0.12-0.005,0.246-0.003,0.368,0c0.303,0.005,0.543,0.042,0.697,0.114
			c0.062,0.029,0.116,0.059,0.166,0.089c0.164,0.099,0.138,0.194-0.081,0.285c-0.242,0.101-0.525,0.192-0.877,0.265
			c-0.158,0.033-0.344,0.061-0.534,0.075c-0.395,0.03-0.798,0.053-1.201,0.074C8.534,7.241,8.129,7.187,7.827,7.086
			C7.639,7.023,7.508,6.948,7.37,6.876C7.091,6.73,7.206,6.58,7.309,6.43C7.424,6.263,7.652,6.111,8.143,6
			C8.675,5.88,9.25,5.77,9.942,5.735c0.647-0.032,1.215,0.037,1.693,0.158C11.64,5.894,11.639,5.897,11.639,5.897z"/>
		<path fill-rule="evenodd" clip-rule="evenodd" d="M9.258,6.295C9.473,6.225,9.671,6.152,9.9,6.087
			c0.201-0.057,0.483-0.077,0.764-0.081c0.334-0.005,0.671-0.004,1.006,0c0.25,0.003,0.442,0.042,0.603,0.092
			c0.367,0.112,0.611,0.243,0.755,0.387c0.261,0.259,0.163,0.506-0.367,0.738c-0.155,0.067-0.354,0.118-0.62,0.152
			c-0.742,0.094-1.493,0.18-2.31,0.216c-0.532,0.023-1.045,0.01-1.545-0.044c-0.611-0.066-0.886-0.2-0.988-0.366
			c-0.034-0.056-0.04-0.113-0.059-0.17c0.011,0,0.023-0.001,0.034-0.002C7.253,7.042,7.32,7.077,7.413,7.106
			c0.134,0.042,0.274,0.085,0.433,0.121c0.395,0.088,0.855,0.111,1.349,0.083c0.406-0.023,0.811-0.049,1.212-0.078
			c0.286-0.02,0.518-0.067,0.732-0.121c0.357-0.089,0.674-0.187,0.905-0.303c0.148-0.075,0.215-0.156,0.118-0.237
			c-0.092-0.077-0.209-0.154-0.365-0.223c-0.213-0.094-0.57-0.131-0.967-0.136c-0.519-0.006-1.016,0.02-1.483,0.083
			C9.329,6.298,9.312,6.3,9.294,6.301C9.292,6.302,9.286,6.3,9.258,6.295z"/>
		<path fill-rule="evenodd" clip-rule="evenodd" d="M8.824,7.876c0.322-0.038,0.61-0.066,0.882-0.104
			c0.174-0.024,0.323-0.061,0.485-0.092c0.048-0.009,0.103-0.017,0.158-0.022c0.547-0.056,1.094-0.112,1.644-0.167
			c0.668-0.066,1.04-0.206,1.282-0.376c0.4-0.282,0.333-0.56-0.137-0.83c-0.144-0.083-0.331-0.16-0.512-0.246
			c0.093,0.003,0.202,0.002,0.293,0.012c0.331,0.037,0.627,0.089,0.87,0.161c0.178,0.053,0.35,0.108,0.525,0.162
			c0.265,0.081,0.411,0.177,0.484,0.282c0.102,0.147,0.11,0.295,0.055,0.443c-0.034,0.093-0.16,0.181-0.374,0.254
			c-0.485,0.167-1.052,0.313-1.759,0.404C11.793,7.876,10.8,7.935,9.763,7.915C9.459,7.909,9.16,7.891,8.824,7.876z"/>
		<path fill-rule="evenodd" clip-rule="evenodd" d="M6.349,5.704c0.299-0.12,0.672-0.21,1.081-0.292
			c0.499-0.1,1.079-0.132,1.673-0.152c0.459-0.015,0.921-0.028,1.383-0.036c0.443-0.008,0.875,0.02,1.26,0.075
			c0.449,0.064,0.876,0.141,1.295,0.22c0.344,0.064,0.561,0.161,0.758,0.26c0.213,0.106,0.437,0.212,0.665,0.316
			c0.182,0.083,0.3,0.17,0.313,0.274c-0.215-0.067-0.419-0.129-0.612-0.192c-0.277-0.091-0.626-0.155-1.009-0.208
			c-0.206-0.028-0.423-0.036-0.648-0.023c-0.167,0.009-0.269,0.002-0.379-0.042c-0.442-0.182-1.115-0.256-1.888-0.276
			C10.059,5.622,9.875,5.62,9.697,5.61C8.832,5.563,7.979,5.567,7.136,5.644C6.887,5.667,6.629,5.683,6.349,5.704z"/>
		<path fill-rule="evenodd" clip-rule="evenodd" d="M9.661,6.454c0.23,0.012,0.468,0.018,0.688,0.039
			c0.31,0.028,0.384,0.122,0.173,0.19c-0.027,0.009-0.054,0.019-0.09,0.024c-0.29,0.045-0.57,0.097-0.877,0.131
			c-0.381,0.043-0.679-0.009-0.731-0.12c-0.017-0.036,0.035-0.074,0.067-0.11c0.012-0.014,0.058-0.026,0.083-0.04
			c0.142-0.076,0.331-0.128,0.694-0.099C9.666,6.464,9.664,6.459,9.661,6.454z"/>
	</g>
	<path d="M13.892,19.864c-0.052,0.001-0.104,0.001-0.157,0.001c-1.729,0-2.86,0.404-3.283-0.899
		c-0.278,0.093-0.634,0.209-0.969,0.321c0.004,0.049,0,0.092,0,0.142c0,1.068-0.883,1.708-2.027,2.122
		c1.637,0.14,6.155-0.363,6.468-1.259C13.978,20.139,13.961,19.997,13.892,19.864z"/>
	<path d="M12.224,17.317c-0.462-0.361-0.74-0.82-0.74-1.322c0-0.461,0.234-0.89,0.631-1.236C16.891,11.611,19.978,6.723,20,1.123
		h-7.483H7.461h-7.45v0.526C0.219,7.007,3.247,11.72,7.854,14.77c0.397,0.352,0.631,0.771,0.631,1.24
		c0,0.506-0.273,0.964-0.73,1.331C3.037,20.504,0,25.502,0,31.064c0,0.004,0,0.059,0,0.059h7.461h5.056H20c0,0,0-0.055,0-0.059
		C20,25.493,16.954,20.48,12.224,17.317z M17.669,23.415c0.673,1.166,1.191,2.396,1.54,3.662c0.342,1.24,0.523,2.521,0.54,3.796
		h-7.232H7.461H0.251c0.016-1.275,0.197-2.551,0.538-3.788c0.348-1.264,0.865-2.493,1.535-3.657
		c0.661-1.146,1.471-2.229,2.409-3.219c0.936-0.988,1.999-1.883,3.16-2.661l0.009-0.005l0.008-0.007
		c0.54-0.432,0.825-0.959,0.825-1.524c0-0.518-0.248-1.011-0.716-1.426l-0.013-0.012l-0.015-0.009
		c-1.173-0.776-2.246-1.665-3.189-2.642c-0.949-0.982-1.768-2.055-2.436-3.189C1.688,7.58,1.164,6.355,0.809,5.1
		C0.466,3.888,0.28,2.648,0.253,1.373h7.208h5.056h7.23h0.003h-0.003c-0.026,0-0.213,2.519-0.557,3.73
		c-0.356,1.254-0.882,2.477-1.565,3.629c-0.669,1.131-1.492,2.203-2.445,3.183c-0.946,0.974-2.024,1.861-3.202,2.638l-0.014,0.009
		l-0.013,0.011c-0.469,0.409-0.716,0.901-0.716,1.422c0,0.559,0.297,1.099,0.836,1.52l0.007,0.005l0.007,0.005
		c1.164,0.778,2.229,1.674,3.168,2.664C16.194,21.182,17.007,22.267,17.669,23.415z"/>
	<g>
		<path d="M1.567,1.994c0.004-0.002,0.016-0.016,0.035-0.039c0.012-0.015,0.029-0.022,0.05-0.022c0.005,0,0.024,0.002,0.058,0.006
			c0.007,0.006,0.012,0.018,0.016,0.036L1.781,2.27c0.003,0.016,0.004,0.025,0.004,0.028c0,0.011-0.004,0.018-0.011,0.021
			C1.768,2.322,1.748,2.324,1.717,2.324c-0.036,0-0.058-0.004-0.069-0.011c-0.01-0.008-0.03-0.039-0.059-0.094
			C1.528,2.103,1.473,2.045,1.425,2.045c-0.035,0-0.052,0.02-0.052,0.061c0,0.05,0.052,0.149,0.156,0.297
			c0.12,0.17,0.198,0.293,0.234,0.369c0.036,0.076,0.054,0.161,0.054,0.255c0,0.112-0.031,0.197-0.094,0.257
			C1.661,3.343,1.59,3.373,1.511,3.373c-0.05,0-0.098-0.012-0.144-0.036C1.349,3.328,1.334,3.324,1.324,3.324
			c-0.009,0-0.016,0.005-0.021,0.016C1.292,3.362,1.265,3.373,1.222,3.373c-0.017,0-0.028-0.002-0.034-0.006
			s-0.01-0.016-0.013-0.035L1.123,3.043c-0.007-0.037-0.01-0.057-0.01-0.059c0-0.017,0.019-0.025,0.055-0.025
			c0.049,0,0.079,0.006,0.088,0.017c0.009,0.011,0.022,0.036,0.039,0.076c0.061,0.141,0.122,0.21,0.183,0.21
			c0.023,0,0.042-0.007,0.056-0.021C1.547,3.227,1.554,3.21,1.554,3.189c0-0.036-0.016-0.08-0.047-0.129
			c-0.032-0.05-0.07-0.106-0.116-0.167C1.282,2.746,1.205,2.628,1.16,2.541C1.115,2.453,1.092,2.363,1.092,2.272
			c0-0.103,0.027-0.185,0.081-0.247c0.054-0.061,0.12-0.092,0.198-0.092C1.425,1.934,1.49,1.954,1.567,1.994z"/>
		<path d="M2.893,3.058H2.635l-0.012,0.08c0,0.002-0.001,0.004-0.002,0.008C2.615,3.163,2.612,3.177,2.612,3.191
			c0,0.021,0.016,0.039,0.049,0.053c0.017,0.008,0.028,0.016,0.032,0.023c0.004,0.008,0.006,0.021,0.006,0.04
			c0,0.023-0.001,0.038-0.005,0.043c-0.003,0.005-0.01,0.007-0.022,0.007H2.399c-0.015,0-0.022-0.013-0.022-0.04
			c0-0.032,0.012-0.058,0.036-0.077c0.023-0.018,0.036-0.037,0.04-0.057l0.192-1.021c0.003-0.016,0.005-0.029,0.005-0.041
			c0-0.018-0.015-0.034-0.044-0.048C2.59,2.066,2.583,2.051,2.583,2.027c0-0.032,0.002-0.051,0.006-0.059
			c0.004-0.007,0.015-0.011,0.033-0.011h0.396c0.024,0,0.041,0.01,0.051,0.029s0.02,0.061,0.029,0.125
			C3.103,2.136,3.107,2.16,3.111,2.185l0.17,0.953C3.29,3.184,3.31,3.219,3.342,3.244C3.351,3.25,3.357,3.255,3.36,3.259
			c0.003,0.004,0.004,0.015,0.004,0.034c0,0.03-0.002,0.048-0.007,0.055c-0.005,0.006-0.015,0.01-0.031,0.01h-0.46
			c-0.014,0-0.021-0.011-0.021-0.033c0-0.027,0.002-0.045,0.005-0.052s0.013-0.015,0.03-0.024c0.024-0.013,0.036-0.029,0.036-0.049
			S2.908,3.132,2.893,3.058z M2.769,2.28L2.652,2.958h0.23L2.769,2.28z"/>
		<path d="M4.696,1.957h0.367c0.025,0,0.042,0.003,0.049,0.009c0.008,0.006,0.012,0.021,0.012,0.046
			c0,0.022-0.003,0.038-0.008,0.047C5.11,2.069,5.097,2.077,5.077,2.085C5.059,2.092,5.048,2.1,5.043,2.108
			c-0.005,0.008-0.007,0.021-0.007,0.04v1.03c0,0.015,0.002,0.026,0.006,0.033c0.004,0.007,0.016,0.014,0.034,0.021
			c0.025,0.01,0.039,0.024,0.039,0.042c0,0.045-0.002,0.07-0.005,0.075S5.094,3.357,5.073,3.357H4.611
			c-0.02,0-0.03-0.014-0.03-0.042c0-0.024,0.001-0.042,0.003-0.054s0.015-0.021,0.038-0.029c0.026-0.008,0.04-0.024,0.04-0.046
			v-0.73l-0.187,0.59H4.361L4.178,2.473v0.71c0,0.023,0.012,0.04,0.037,0.051C4.245,3.247,4.26,3.27,4.26,3.302
			c0,0.037-0.015,0.056-0.045,0.056H3.99c-0.025,0-0.038-0.018-0.038-0.053c0-0.025,0.011-0.044,0.032-0.058
			C4,3.236,4.01,3.228,4.014,3.221C4.018,3.214,4.02,3.202,4.02,3.186V2.184c0-0.028-0.003-0.049-0.009-0.064
			S3.993,2.093,3.974,2.083C3.953,2.075,3.942,2.065,3.942,2.055l0.001-0.038c0-0.027,0.003-0.044,0.007-0.051
			c0.004-0.006,0.013-0.01,0.027-0.01h0.383l0.166,0.536L4.696,1.957z"/>
		<path d="M6.187,3.058H5.929l-0.012,0.08c0,0.002,0,0.004-0.002,0.008C5.909,3.163,5.906,3.177,5.906,3.191
			c0,0.021,0.016,0.039,0.048,0.053c0.017,0.008,0.028,0.016,0.032,0.023c0.004,0.008,0.006,0.021,0.006,0.04
			c0,0.023-0.001,0.038-0.004,0.043C5.984,3.355,5.977,3.357,5.965,3.357H5.693c-0.015,0-0.023-0.013-0.023-0.04
			c0-0.032,0.012-0.058,0.037-0.077c0.022-0.018,0.036-0.037,0.039-0.057l0.192-1.021c0.003-0.016,0.005-0.029,0.005-0.041
			c0-0.018-0.015-0.034-0.045-0.048C5.884,2.066,5.877,2.051,5.877,2.027c0-0.032,0.002-0.051,0.006-0.059
			c0.004-0.007,0.015-0.011,0.033-0.011h0.396c0.024,0,0.041,0.01,0.051,0.029s0.02,0.061,0.029,0.125
			C6.396,2.136,6.4,2.16,6.405,2.185l0.17,0.953c0.008,0.046,0.029,0.082,0.062,0.106C6.645,3.25,6.651,3.255,6.654,3.259
			c0.002,0.004,0.004,0.015,0.004,0.034c0,0.03-0.002,0.048-0.007,0.055c-0.005,0.006-0.015,0.01-0.031,0.01h-0.46
			c-0.014,0-0.021-0.011-0.021-0.033c0-0.027,0.001-0.045,0.005-0.052s0.014-0.015,0.03-0.024c0.024-0.013,0.036-0.029,0.036-0.049
			S6.202,3.132,6.187,3.058z M6.063,2.28L5.946,2.958h0.23L6.063,2.28z"/>
		<path d="M7.706,2.741v0.431c0,0.02,0.001,0.034,0.004,0.041c0.003,0.007,0.012,0.014,0.026,0.022
			c0.018,0.01,0.027,0.026,0.027,0.049c0,0.034-0.003,0.054-0.011,0.062s-0.021,0.012-0.04,0.012H7.275
			c-0.025,0-0.037-0.015-0.037-0.045c0-0.029,0.001-0.048,0.003-0.056S7.25,3.242,7.262,3.239C7.3,3.226,7.319,3.201,7.319,3.164
			V2.147c0-0.038-0.017-0.061-0.05-0.068C7.253,2.074,7.242,2.069,7.238,2.065C7.234,2.06,7.232,2.047,7.232,2.024
			c0-0.045,0.015-0.067,0.043-0.067h0.573c0.114,0,0.216,0.036,0.305,0.107c0.089,0.072,0.134,0.168,0.134,0.289
			c0,0.172-0.104,0.284-0.314,0.337c0.191,0.035,0.287,0.137,0.287,0.304v0.207c0,0.018,0.008,0.03,0.024,0.039
			c0.019,0.01,0.028,0.026,0.028,0.048c0,0.034-0.002,0.053-0.007,0.06s-0.018,0.01-0.038,0.01H7.99
			c-0.033,0-0.061-0.016-0.082-0.047C7.886,3.279,7.875,3.24,7.875,3.193v-0.35c0-0.068-0.041-0.103-0.123-0.103H7.706z
			 M7.706,2.056v0.584h0.067c0.068,0,0.103-0.058,0.103-0.172v-0.28c0-0.048-0.011-0.083-0.033-0.103
			c-0.021-0.02-0.056-0.03-0.102-0.03H7.706z"/>
		<path d="M9.152,2.563v0.613c0,0.025,0.018,0.044,0.052,0.057C9.233,3.244,9.248,3.26,9.248,3.28c0,0.042-0.001,0.065-0.004,0.07
			c-0.002,0.004-0.013,0.007-0.03,0.007H8.939c-0.014,0-0.022-0.004-0.026-0.014C8.91,3.335,8.908,3.313,8.908,3.277
			c0-0.016,0.009-0.027,0.028-0.034C8.971,3.23,8.989,3.215,8.989,3.199V2.173c0-0.024-0.003-0.043-0.008-0.056
			C8.975,2.104,8.963,2.094,8.944,2.086C8.927,2.08,8.915,2.072,8.909,2.064C8.903,2.056,8.9,2.041,8.9,2.018
			c0-0.04,0.013-0.061,0.039-0.061h0.287l0.349,0.677V2.135c0-0.028-0.017-0.048-0.051-0.06C9.503,2.068,9.491,2.06,9.485,2.05
			C9.479,2.041,9.476,2.022,9.476,1.994c0-0.017,0.002-0.028,0.006-0.031c0.004-0.004,0.012-0.006,0.024-0.006h0.286
			c0.016,0.002,0.024,0.021,0.024,0.057c0,0.021-0.001,0.035-0.005,0.041C9.808,2.061,9.801,2.066,9.79,2.07
			C9.766,2.078,9.75,2.086,9.744,2.093C9.738,2.101,9.735,2.111,9.735,2.125v1.233H9.559L9.152,2.563z"/>
		<path d="M11.151,1.957h0.367c0.025,0,0.041,0.003,0.049,0.009c0.007,0.006,0.011,0.021,0.011,0.046
			c0,0.022-0.002,0.038-0.008,0.047c-0.005,0.009-0.018,0.017-0.038,0.025c-0.018,0.007-0.029,0.015-0.034,0.022
			c-0.005,0.008-0.007,0.021-0.007,0.04v1.03c0,0.015,0.002,0.026,0.006,0.033c0.004,0.007,0.015,0.014,0.034,0.021
			c0.025,0.01,0.038,0.024,0.038,0.042c0,0.045-0.001,0.07-0.005,0.075c-0.004,0.005-0.016,0.007-0.037,0.007h-0.462
			c-0.02,0-0.03-0.014-0.03-0.042c0-0.024,0.001-0.042,0.003-0.054c0.002-0.012,0.015-0.021,0.039-0.029
			c0.026-0.008,0.04-0.024,0.04-0.046v-0.73l-0.187,0.59h-0.114l-0.184-0.572v0.71c0,0.023,0.013,0.04,0.038,0.051
			c0.03,0.013,0.045,0.035,0.045,0.067c0,0.037-0.015,0.056-0.045,0.056h-0.225c-0.025,0-0.038-0.018-0.038-0.053
			c0-0.025,0.011-0.044,0.032-0.058c0.016-0.011,0.026-0.02,0.03-0.026s0.006-0.019,0.006-0.035V2.184
			c0-0.028-0.003-0.049-0.009-0.064s-0.019-0.027-0.038-0.036c-0.021-0.009-0.031-0.019-0.031-0.028l0.001-0.038
			c0-0.027,0.003-0.044,0.006-0.051c0.004-0.006,0.013-0.01,0.028-0.01h0.383l0.166,0.536L11.151,1.957z"/>
		<path d="M12.146,2.03V1.984c0-0.018,0.012-0.027,0.034-0.027h0.497c0.019,0,0.031,0.002,0.036,0.006
			C12.718,1.967,12.721,1.979,12.721,2c0,0.031-0.002,0.05-0.005,0.057c-0.004,0.008-0.012,0.012-0.025,0.014
			c-0.043,0.006-0.064,0.029-0.064,0.068v1.043c0,0.022,0.016,0.04,0.047,0.052c0.02,0.008,0.032,0.015,0.036,0.021
			c0.004,0.006,0.006,0.018,0.006,0.033v0.034c0,0.019-0.002,0.029-0.006,0.031c-0.004,0.002-0.015,0.003-0.032,0.003H12.17
			c-0.019,0-0.029-0.006-0.029-0.019c0-0.042,0.001-0.067,0.005-0.077c0.004-0.009,0.016-0.016,0.037-0.021
			c0.037-0.009,0.056-0.025,0.056-0.049v-1.03c0-0.024-0.003-0.043-0.01-0.055c-0.007-0.013-0.022-0.023-0.045-0.031
			c-0.018-0.006-0.028-0.012-0.032-0.017S12.146,2.044,12.146,2.03z"/>
		<path d="M13.562,2.054h-0.047c-0.016,0-0.028,0.009-0.038,0.025c-0.01,0.017-0.02,0.063-0.031,0.139
			c-0.005,0.033-0.012,0.054-0.023,0.062c-0.01,0.008-0.031,0.013-0.062,0.013c-0.03,0-0.049-0.003-0.058-0.009
			c-0.008-0.006-0.013-0.018-0.013-0.036c0-0.01,0-0.021,0.001-0.031l0.013-0.202c0.001-0.023,0.006-0.039,0.014-0.046
			s0.029-0.011,0.063-0.011h0.76c0.022,0,0.036,0.002,0.041,0.007c0.005,0.005,0.009,0.021,0.012,0.05l0.018,0.179
			c0.001,0.014,0.002,0.028,0.002,0.042c0,0.018-0.002,0.031-0.008,0.04S14.184,2.29,14.156,2.29c-0.035,0-0.058-0.003-0.068-0.009
			c-0.01-0.006-0.018-0.024-0.024-0.055c-0.011-0.05-0.023-0.092-0.036-0.124c-0.013-0.032-0.029-0.048-0.049-0.048h-0.031v1.114
			c0,0.032,0.017,0.054,0.05,0.066c0.014,0.005,0.022,0.011,0.027,0.019c0.004,0.007,0.007,0.022,0.007,0.045
			c0,0.03-0.003,0.047-0.01,0.052c-0.006,0.005-0.02,0.007-0.042,0.007h-0.457c-0.018,0-0.03-0.003-0.035-0.009
			c-0.005-0.006-0.008-0.022-0.008-0.049c0-0.032,0.011-0.052,0.033-0.059c0.021-0.007,0.034-0.014,0.04-0.021
			c0.005-0.006,0.008-0.018,0.008-0.034V2.054z"/>
		<path d="M15.278,2.741v0.431c0,0.02,0.001,0.034,0.004,0.041c0.003,0.007,0.012,0.014,0.026,0.022
			c0.018,0.01,0.027,0.026,0.027,0.049c0,0.034-0.004,0.054-0.011,0.062c-0.007,0.008-0.021,0.012-0.04,0.012h-0.438
			c-0.025,0-0.037-0.015-0.037-0.045c0-0.029,0.001-0.048,0.003-0.056s0.009-0.014,0.021-0.018c0.038-0.013,0.057-0.038,0.057-0.075
			V2.147c0-0.038-0.017-0.061-0.05-0.068c-0.017-0.005-0.027-0.009-0.031-0.014c-0.004-0.005-0.006-0.018-0.006-0.041
			c0-0.045,0.015-0.067,0.043-0.067h0.573c0.114,0,0.216,0.036,0.305,0.107c0.089,0.072,0.134,0.168,0.134,0.289
			c0,0.172-0.105,0.284-0.314,0.337c0.191,0.035,0.287,0.137,0.287,0.304v0.207c0,0.018,0.008,0.03,0.023,0.039
			c0.019,0.01,0.028,0.026,0.028,0.048c0,0.034-0.002,0.053-0.007,0.06s-0.018,0.01-0.039,0.01h-0.277
			c-0.033,0-0.061-0.016-0.082-0.047c-0.021-0.031-0.032-0.07-0.032-0.117v-0.35c0-0.068-0.041-0.103-0.124-0.103H15.278z
			 M15.278,2.056v0.584h0.067c0.068,0,0.103-0.058,0.103-0.172v-0.28c0-0.048-0.011-0.083-0.033-0.103
			c-0.021-0.02-0.056-0.03-0.102-0.03H15.278z"/>
		<path d="M16.534,2.064c0-0.035,0.015-0.065,0.044-0.091c0.029-0.026,0.068-0.039,0.115-0.039c0.058,0,0.106,0.021,0.143,0.064
			c0.037,0.043,0.056,0.091,0.056,0.145c0,0.078-0.033,0.157-0.1,0.236S16.679,2.5,16.654,2.5c-0.007,0-0.021-0.007-0.042-0.02
			l-0.01-0.006c-0.018-0.01-0.027-0.018-0.027-0.023c0-0.004,0.009-0.017,0.028-0.039c0.052-0.062,0.078-0.11,0.078-0.146
			c0-0.027-0.017-0.05-0.05-0.069s-0.058-0.04-0.073-0.062C16.542,2.112,16.534,2.089,16.534,2.064z"/>
		<path d="M17.426,2.422c0.063-0.06,0.131-0.089,0.203-0.089c0.098,0,0.181,0.041,0.251,0.123c0.07,0.082,0.105,0.2,0.105,0.355
			c0,0.163-0.043,0.297-0.131,0.403s-0.204,0.159-0.349,0.159c-0.096,0-0.179-0.022-0.248-0.065
			c-0.068-0.044-0.124-0.114-0.166-0.21C17.05,3,17.029,2.875,17.029,2.721c0-0.187,0.032-0.337,0.094-0.451
			c0.063-0.114,0.153-0.196,0.271-0.246c0.118-0.05,0.244-0.075,0.377-0.075c0.036,0,0.061,0.002,0.074,0.006
			c0.013,0.004,0.02,0.012,0.02,0.023c0,0.043-0.002,0.069-0.007,0.078c-0.005,0.008-0.021,0.012-0.051,0.012
			c-0.064,0-0.13,0.013-0.198,0.038c-0.068,0.025-0.116,0.061-0.143,0.106S17.426,2.329,17.426,2.422z M17.585,2.547
			c0-0.019-0.006-0.035-0.019-0.048c-0.013-0.013-0.029-0.02-0.051-0.02c-0.053,0-0.08,0.033-0.08,0.1v0.62
			c0,0.018,0.007,0.032,0.022,0.043c0.015,0.012,0.032,0.018,0.052,0.018c0.024,0,0.043-0.009,0.056-0.026
			c0.013-0.018,0.02-0.054,0.02-0.109V2.547z"/>
		<path d="M18.28,3.097h0.52c0.023,0,0.042-0.007,0.055-0.022c0.014-0.015,0.025-0.042,0.035-0.083
			c0.004-0.017,0.011-0.028,0.02-0.034c0.009-0.005,0.028-0.008,0.057-0.008c0.043,0,0.064,0.008,0.064,0.023
			c0,0.005-0.001,0.011-0.003,0.018c-0.003,0.016-0.011,0.053-0.022,0.112c-0.012,0.064-0.025,0.12-0.037,0.168
			c-0.012,0.048-0.021,0.074-0.027,0.079c-0.006,0.004-0.022,0.007-0.048,0.007h-0.818V3.154c0-0.028,0.029-0.064,0.087-0.107
			c0.029-0.022,0.096-0.088,0.202-0.199s0.174-0.201,0.205-0.271c0.031-0.07,0.047-0.164,0.047-0.28
			c0-0.098-0.011-0.161-0.034-0.189c-0.022-0.028-0.055-0.042-0.097-0.042c-0.032,0-0.057,0.007-0.074,0.022
			c-0.018,0.015-0.027,0.035-0.027,0.059c0,0.014,0.002,0.031,0.005,0.05c0.004,0.026,0.006,0.051,0.006,0.076
			c0,0.052-0.015,0.093-0.043,0.122c-0.029,0.029-0.065,0.043-0.109,0.043c-0.047,0-0.084-0.016-0.112-0.047
			C18.104,2.361,18.09,2.324,18.09,2.28c0-0.091,0.041-0.169,0.122-0.233s0.191-0.096,0.328-0.096c0.139,0,0.253,0.037,0.342,0.11
			c0.09,0.074,0.134,0.169,0.134,0.286c0,0.065-0.016,0.127-0.047,0.186c-0.032,0.059-0.075,0.112-0.13,0.158
			c-0.055,0.046-0.135,0.104-0.241,0.173C18.453,2.958,18.347,3.036,18.28,3.097z"/>
	</g>
	<g>
		<path d="M3.424,4.221l0.059-0.039c0.042,0.084,0.089,0.126,0.144,0.126c0.023,0,0.045-0.006,0.065-0.018
			c0.021-0.012,0.036-0.028,0.046-0.048C3.749,4.222,3.754,4.2,3.754,4.178c0-0.026-0.008-0.051-0.023-0.076
			C3.709,4.068,3.669,4.027,3.612,3.979C3.554,3.931,3.519,3.896,3.504,3.874C3.48,3.838,3.468,3.799,3.468,3.757
			c0-0.034,0.007-0.064,0.021-0.091C3.503,3.638,3.524,3.616,3.55,3.601c0.026-0.016,0.054-0.024,0.085-0.024
			c0.033,0,0.063,0.009,0.092,0.027c0.028,0.018,0.058,0.051,0.09,0.099L3.76,3.75C3.734,3.712,3.712,3.687,3.694,3.674
			c-0.018-0.012-0.038-0.018-0.06-0.018c-0.028,0-0.05,0.009-0.068,0.028C3.548,3.703,3.539,3.726,3.539,3.753
			c0,0.017,0.003,0.033,0.009,0.049s0.018,0.033,0.035,0.051C3.592,3.863,3.622,3.889,3.672,3.93
			c0.06,0.049,0.101,0.092,0.124,0.131c0.022,0.038,0.033,0.077,0.033,0.115c0,0.056-0.019,0.104-0.057,0.145
			S3.687,4.383,3.633,4.383c-0.042,0-0.08-0.013-0.114-0.037C3.484,4.321,3.453,4.279,3.424,4.221z"/>
		<path d="M4.777,3.596h0.069V4.06c0,0.055,0.001,0.089,0.003,0.103c0.003,0.03,0.012,0.056,0.024,0.076
			c0.013,0.021,0.032,0.038,0.058,0.051C4.957,4.303,4.983,4.31,5.009,4.31c0.022,0,0.044-0.005,0.065-0.016
			s0.039-0.025,0.053-0.045c0.014-0.019,0.024-0.042,0.031-0.069c0.004-0.02,0.007-0.06,0.007-0.12V3.596h0.069V4.06
			c0,0.068-0.006,0.124-0.018,0.166C5.205,4.268,5.18,4.305,5.144,4.336s-0.08,0.047-0.131,0.047c-0.056,0-0.104-0.015-0.143-0.044
			C4.83,4.309,4.803,4.27,4.79,4.221C4.781,4.191,4.777,4.137,4.777,4.06V3.596z"/>
		<path d="M6.487,3.596L6.81,4.363H6.735L6.626,4.111H6.328L6.221,4.363H6.144L6.47,3.596H6.487z M6.479,3.759L6.36,4.037h0.236
			L6.479,3.759z"/>
		<path d="M7.717,4.363V3.596h0.015l0.46,0.588V3.596H8.26v0.767H8.245L7.788,3.782v0.581H7.717z"/>
		<path d="M9.228,3.596h0.071v0.288l0.276-0.288h0.093L9.336,3.94l0.358,0.423H9.602L9.299,4.006v0.357H9.228V3.596z"/>
		<path d="M10.599,3.596h0.069V4.06c0,0.055,0.001,0.089,0.003,0.103c0.003,0.03,0.011,0.056,0.024,0.076
			c0.012,0.021,0.032,0.038,0.058,0.051s0.052,0.021,0.079,0.021c0.023,0,0.045-0.005,0.066-0.016s0.039-0.025,0.053-0.045
			c0.014-0.019,0.024-0.042,0.031-0.069c0.005-0.02,0.007-0.06,0.007-0.12V3.596h0.069V4.06c0,0.068-0.006,0.124-0.018,0.166
			c-0.012,0.042-0.036,0.079-0.072,0.11s-0.08,0.047-0.131,0.047c-0.056,0-0.104-0.015-0.144-0.044
			c-0.04-0.029-0.066-0.069-0.08-0.117c-0.008-0.03-0.013-0.084-0.013-0.162V3.596z"/>
		<path d="M12.026,3.596h0.069V4.29h0.266v0.074h-0.335V3.596z"/>
		<path d="M13.553,3.596l0.323,0.767h-0.075l-0.109-0.252h-0.298l-0.108,0.252h-0.077l0.327-0.767H13.553z M13.544,3.759
			l-0.118,0.278h0.236L13.544,3.759z"/>
		<path d="M14.787,3.596h0.138c0.077,0,0.128,0.003,0.156,0.01c0.041,0.011,0.075,0.033,0.1,0.067
			c0.026,0.034,0.039,0.076,0.039,0.126c0,0.042-0.009,0.079-0.026,0.11s-0.043,0.056-0.076,0.072
			c-0.033,0.016-0.078,0.024-0.136,0.025l0.249,0.356h-0.085l-0.249-0.356h-0.039v0.356h-0.069V3.596z M14.855,3.671v0.261
			l0.119,0.001c0.046,0,0.08-0.005,0.103-0.015c0.022-0.01,0.039-0.025,0.052-0.047c0.012-0.021,0.019-0.045,0.019-0.072
			c0-0.025-0.006-0.049-0.019-0.07c-0.012-0.021-0.029-0.036-0.049-0.045c-0.021-0.009-0.054-0.013-0.102-0.013H14.855z"/>
		<path d="M16.168,3.596h0.136c0.055,0,0.097,0.007,0.126,0.021c0.029,0.015,0.053,0.037,0.07,0.066
			c0.017,0.03,0.026,0.063,0.026,0.1c0,0.034-0.008,0.065-0.022,0.093c-0.015,0.028-0.037,0.051-0.066,0.068
			c0.036,0.013,0.063,0.029,0.083,0.047c0.02,0.019,0.035,0.041,0.045,0.066s0.016,0.054,0.016,0.084
			c0,0.062-0.02,0.113-0.061,0.156c-0.041,0.042-0.095,0.063-0.163,0.063h-0.19V3.596z M16.236,3.671v0.246h0.04
			c0.048,0,0.083-0.005,0.106-0.015c0.022-0.01,0.041-0.025,0.054-0.047s0.02-0.045,0.02-0.071c0-0.035-0.011-0.063-0.033-0.083
			c-0.022-0.02-0.057-0.03-0.105-0.03H16.236z M16.236,3.994v0.294h0.085c0.051,0,0.087-0.006,0.111-0.017
			c0.023-0.011,0.042-0.028,0.057-0.051c0.014-0.023,0.021-0.049,0.021-0.076c0-0.034-0.01-0.064-0.03-0.089
			s-0.048-0.043-0.083-0.052c-0.024-0.006-0.065-0.009-0.123-0.009H16.236z"/>
	</g>
	<path d="M17.888,25.541c-1.182,0.677-2.568,1.04-4.02,1.04c-0.48,0-0.959-0.04-1.433-0.121c-0.461-0.079-0.916-0.197-1.357-0.354
		c-0.229-0.082-0.452-0.177-0.671-0.282c-0.065-0.031-0.129-0.065-0.193-0.099c-0.068-0.035-0.136-0.071-0.203-0.108
		c-0.078-0.042-0.157-0.081-0.238-0.117c-0.313-0.138-0.632-0.258-0.96-0.357c-0.792-0.239-1.633-0.364-2.496-0.364
		c-1.601,0-3.125,0.429-4.399,1.223c-0.484,1.305-0.78,2.672-0.872,4.075h17.915C18.856,28.521,18.488,26.993,17.888,25.541z
		 M2.997,27.13c-0.191,0-0.346-0.155-0.346-0.346s0.155-0.346,0.346-0.346s0.346,0.155,0.346,0.346S3.188,27.13,2.997,27.13z
		 M7.121,29.692H3.71v-1.903c0-0.624,0.763-1.13,1.705-1.13s1.705,0.506,1.705,1.13V29.692z M7.764,27.13
		c-0.191,0-0.346-0.155-0.346-0.346s0.155-0.346,0.346-0.346s0.346,0.155,0.346,0.346S7.955,27.13,7.764,27.13z M11.701,29.692
		h-3.41V28.18c0-0.624,0.764-1.13,1.705-1.13c0.942,0,1.705,0.506,1.705,1.13V29.692z M12.385,27.789
		c-0.191,0-0.346-0.155-0.346-0.346s0.155-0.346,0.346-0.346c0.191,0,0.347,0.155,0.347,0.346S12.576,27.789,12.385,27.789z
		 M16.29,29.692h-3.41v-1.12c0-0.624,0.763-1.13,1.705-1.13c0.941,0,1.705,0.506,1.705,1.13V29.692z M16.636,27.789
		c-0.191,0-0.346-0.155-0.346-0.346s0.155-0.346,0.346-0.346s0.346,0.155,0.346,0.346S16.827,27.789,16.636,27.789z"/>
	<g>
		<path d="M14.584,22.495c0.942,0,1.705,0.506,1.705,1.13v2.243c0.509-0.167,0.999-0.385,1.462-0.646
			c-0.868-1.97-2.17-3.792-3.837-5.345c-0.062-0.001-0.123-0.002-0.185-0.002c-0.863,0-1.704,0.124-2.496,0.36
			c-0.327,0.098-0.647,0.217-0.96,0.354c-0.081,0.035-0.159,0.074-0.238,0.115c-0.067,0.037-0.135,0.072-0.203,0.107
			c-0.064,0.034-0.128,0.067-0.193,0.098c-0.219,0.104-0.443,0.199-0.671,0.28c-0.441,0.155-0.896,0.272-1.357,0.35
			c-0.473,0.08-0.953,0.12-1.432,0.12c-0.558,0-1.105-0.053-1.635-0.156c-0.98,1.177-1.771,2.459-2.352,3.815
			c0.479-0.27,0.988-0.49,1.518-0.657v-0.645c0-0.624,0.764-1.13,1.705-1.13c0.942,0,1.705,0.506,1.705,1.13v0.31
			c0.401,0.042,0.794,0.113,1.179,0.21V23.79c0-0.624,0.763-1.13,1.705-1.13c0.941,0,1.705,0.506,1.705,1.13v2.137
			c0.26,0.075,0.523,0.137,0.788,0.186c0.127,0.023,0.254,0.043,0.382,0.06v-2.548C12.879,23,13.643,22.495,14.584,22.495z
			 M7.73,23.006c-0.191,0-0.346-0.155-0.346-0.346c0-0.191,0.155-0.346,0.346-0.346c0.191,0,0.346,0.155,0.346,0.346
			C8.076,22.851,7.921,23.006,7.73,23.006z M12.385,22.66c-0.191,0-0.346-0.155-0.346-0.346c0-0.191,0.155-0.347,0.346-0.347
			c0.191,0,0.347,0.155,0.347,0.347C12.731,22.504,12.576,22.66,12.385,22.66z"/>
	</g>
	<g>
		<path d="M9.484,17.257v4.464l0.976-0.013v-4.969C10.13,16.901,9.804,17.074,9.484,17.257z"/>
		<path d="M6.047,12.04c-0.178-0.723,0.734-1.247,1.066-1.33c0.718-0.179,2.022-0.171,2.933-0.451
			c1.147-0.352,2.43-0.824,2.839-1.48c-0.269,0.073-0.667,0.105-1.26,0.038c-1.75-0.2-2.1,0.15-2.95,0
			C7.825,8.667,6.1,9.042,5.6,8.477C5.1,7.913,5.094,8.085,5.094,8.085c-1.73-0.06-2.277-0.759-2.445-1.126
			C2.546,7.214,2.547,7.515,2.693,7.791c0.097,0.183,0.198,0.364,0.303,0.543c0.638,1.087,1.423,2.118,2.333,3.061
			c0.238,0.247,0.485,0.487,0.74,0.722C6.061,12.091,6.054,12.065,6.047,12.04z"/>
		<path d="M17.314,6.896c-0.055,0.137-0.125,0.252-0.168,0.326C16.968,7.525,16.8,7.467,16.75,7.693
			c-0.05,0.227-0.125,0.499-0.825,0.624c-0.646,0.115-2.216,0.039-2.456,0.027c0.002,1.175-1.659,1.845-3.29,2.346
			c-1.25,0.383-2.591,1.027-2.641,2.027c-0.021,0.412,0.348,0.803,0.712,1.121c0.051,0.034,0.102,0.069,0.152,0.103l0.001,0
			c0.038,0.025,0.075,0.054,0.109,0.084l0.001,0.001c0.093,0.083,0.18,0.168,0.26,0.256c0,0,0.001,0,0.001,0.001h0
			c0.464,0.508,0.707,1.101,0.707,1.732c0,0.018,0,0.037-0.001,0.055l0.003,0.013v0.217c0.613-0.602,0.754-1.365,1.948-2.258l0,0
			c0.007-0.006,0.013-0.012,0.02-0.018l0,0c0.034-0.029,0.07-0.056,0.107-0.081c1.136-0.748,2.174-1.603,3.085-2.542
			c0.914-0.942,1.702-1.972,2.342-3.058c0.107-0.181,0.209-0.363,0.308-0.545C17.457,7.495,17.445,7.165,17.314,6.896z"/>
	</g>
</g>
</svg>
