<?xml version="1.0" encoding="utf-8"?>
<!-- Generator: Adobe Illustrator 16.0.0, SVG Export Plug-In . SVG Version: 6.00 Build 0)  -->
<!DOCTYPE svg PUBLIC "-//W3C//DTD SVG 1.1//EN" "http://www.w3.org/Graphics/SVG/1.1/DTD/svg11.dtd">
<svg version="1.1" id="Layer_1" xmlns="http://www.w3.org/2000/svg" xmlns:xlink="http://www.w3.org/1999/xlink" x="0px" y="0px"
	 width="1733.442px" height="274.987px" viewBox="0 0 1733.442 274.987" enable-background="new 0 0 1733.442 274.987"
	 xml:space="preserve">
<g>
	<rect x="-2082" y="425.576" fill="#F6E0AE" width="152" height="152"/>
	<rect x="-2082" y="607.066" fill="#CE7E7D" width="152" height="152"/>
	<rect x="-1886.313" y="607.066" fill="#5B4450" width="152" height="152"/>
	<rect x="-1888" y="425.576" fill="#93A6B4" width="152" height="152"/>
</g>
<g>
	<g>
		<path fill-rule="evenodd" clip-rule="evenodd" fill="#F6E0AE" d="M77.252,61.922c0.816-0.655,2.339-1.187,4.068-1.674
			c3.002-0.848,4.077-1.931,5.189-3.015c0.891-0.856,1.793-1.716,2.738-2.564c0.516-0.467,1.813-0.683,3.516-0.797
			c3.718-0.249,7.419-0.134,11.136-0.031c1.746,0.05,3.494,0.104,5.459,0.165c-0.364,0.101-0.615,0.173-0.886,0.243
			c-2.495,0.652-4.858,1.355-5.973,2.251c-0.766,0.616-1.938,1.131-3.293,1.646c-1.93,0.731-3.357,1.548-3.963,2.433
			c-0.308,0.451-0.219,0.93-0.062,1.389c0.253,0.739,0.458,1.478-0.414,2.187c-1.675,1.346-0.818,2.634,0.845,3.927
			c1.17,0.912,2.793,1.744,5.264,2.452c0.246,0.067,0.459,0.146,0.693,0.221c-0.073,0.025-0.111,0.05-0.151,0.05
			c-3.762,0.02-7.523,0.047-11.292,0.047c-0.845,0-1.718-0.092-2.529-0.173c-1.211-0.123-2.027-0.35-2.229-0.711
			c-0.555-0.983-0.992-1.968-1.707-2.942c-0.449-0.607-1.194-1.204-2.017-1.783c-1.377-0.96-2.923-1.898-4.394-2.844
			C77.252,62.236,77.252,62.079,77.252,61.922z"/>
		<path fill-rule="evenodd" clip-rule="evenodd" fill="#F6E0AE" d="M161.172,74.233c0.073-0.848,0.6-1.646,1.518-2.424
			c0.123-0.101,0.51-0.187,0.834-0.263c2.766-0.638,5.572-1.26,7.737-2.06c2.335-0.862,3.724-1.82,3.835-2.895
			c0.135-1.25,0.185-2.496-0.985-3.728c-0.246-0.252,0-0.549,0.14-0.826c0.605-1.234-0.492-2.363-3.017-3.39
			c-0.492-0.204-0.634-0.392-0.554-0.636c0.229-0.691,0.329-1.385,0.476-2.077c0.017-0.109,0-0.213,0-0.348
			c1.667,0.336,3.14,0.678,4.769,0.952c1.982,0.333,4.01,0.661,6.147,0.898c2.782,0.314,4.821,0.832,6.467,1.47
			c1.595,0.621,1.601,1.354,0.891,2.041c-1.39,1.349-1.222,2.712-0.914,4.078c0.163,0.697-0.279,1.355-1.326,1.996
			c-1.305,0.797-2.721,1.59-3.577,2.424c-0.739,0.717-0.75,1.489-1.092,2.237c-0.162,0.364-0.313,0.725-0.493,1.092
			c-0.185,0.392-0.962,0.669-2.362,0.778c-2.385,0.185-4.764,0.406-7.199,0.493c-3.55,0.125-7.148,0.14-10.727,0.201
			C161.598,74.247,161.459,74.241,161.172,74.233z"/>
		<path fill-rule="evenodd" clip-rule="evenodd" fill="#F6E0AE" d="M128.695,56.021c-2.313,0.367-4.378,0.678-6.394,1.014
			c-5.072,0.854-8.768,2.013-10.424,3.585c-1.39,1.324-2.297,2.662-1.596,4.057c0.135,0.28-0.304,0.584-0.402,0.876
			c-0.371,1.109-0.147,2.2,1.276,3.258c1.802,1.344,5.4,2.152,10.357,2.514c2.59,0.188,5.29,0.269,7.971,0.395
			c-1.646,0.16-3.358,0.387-5.167,0.487c-6.679,0.373-12.82,0.073-17.926-1.237c-2.632-0.678-5.388-1.355-6.752-2.284
			c-1.233-0.843-2.173-1.724-2.911-2.609c-0.314-0.378-0.007-0.815,0.369-1.201c1.018-1.022,1.399-2.046,0.84-3.096
			c-0.684-1.285,1.507-2.332,3.969-3.339c0.901-0.375,2.072-0.697,3.147-1.036c1.164-0.361,2.619-0.593,4.338-0.711
			c2.726-0.193,5.437-0.405,8.169-0.591C121.137,55.862,124.754,55.946,128.695,56.021z"/>
		<path fill-rule="evenodd" clip-rule="evenodd" fill="#F6E0AE" d="M105.518,53.144c1.024-0.535,1.954-1.002,2.815-1.484
			c0.493-0.274,0.952-0.557,1.3-0.848c1.338-1.142,4.289-1.822,8.297-2.25c5.749-0.607,11.414-0.565,17.098,0.047
			c1.59,0.173,3.225,0.327,4.81,0.503c5.245,0.58,10.693,0.79,16.33,0.681c3.047-0.056,5.645,0.19,7.598,0.84
			c2.608,0.862,4.478,1.803,4.423,2.967c-0.068,1.167-0.012,2.343-0.012,3.597c-0.274-0.109-0.431-0.154-0.537-0.212
			c-0.906-0.454-1.74-0.916-2.716-1.357c-2.015-0.916-4.954-1.582-8.173-2.17c-4.524-0.823-9.198-1.579-14.73-1.747
			c-2.514-0.078-5.117-0.042-7.648,0.026c-4.248,0.118-8.48,0.285-12.701,0.467c-2.828,0.117-5.359,0.454-7.748,0.868
			c-0.527,0.092-1.216,0.154-1.826,0.151C109.958,53.216,107.808,53.174,105.518,53.144z"/>
		<path fill-rule="evenodd" clip-rule="evenodd" fill="#F6E0AE" d="M158.882,72.479c-0.263,0.862-0.425,1.693-0.783,2.519
			c-0.28,0.627-1.517,1.106-3.472,1.484c-3.201,0.613-6.667,0.798-10.514,0.669c-3.152-0.109-6.337-0.143-9.517-0.205
			c-3.046-0.053-5.963,0.149-8.852,0.381c-4.339,0.342-8.678,0.484-13.028,0.022c-3.505-0.372-6.739-0.851-8.342-1.85
			c-0.576-0.361-0.934-0.75-1.383-1.128c-0.599-0.507-1.086-1.03-1.803-1.526c-0.616-0.428-1.488-0.829-2.307-1.279
			c1.871,0.028,3.824,0.05,5.773,0.087c0.223,0.002,0.459,0.062,0.637,0.104c3.254,0.825,7.313,1.13,11.556,1.315
			c0.532,0.022,1.087,0.05,1.596,0.104c9.804,1.024,19.757,1.204,29.912,0.403C151.975,73.298,155.596,73.018,158.882,72.479z"/>
		<path fill-rule="evenodd" clip-rule="evenodd" fill="#F6E0AE" d="M147.254,57.642c-2.86,0.031-5.682,0.031-8.48,0.104
			c-3.45,0.092-6.417,0.49-8.516,1.26c-1.848,0.677-3.734,1.355-5.319,2.074c-0.835,0.381-1.103,0.854-1.545,1.291
			c-0.296,0.285-0.442,0.582-0.655,0.87c-0.671,0.863,0.191,1.596,2.537,2.189c1.796,0.458,3.996,0.479,6.186,0.288
			c3.141-0.269,5.951-0.719,8.516-1.273c3.314-0.72,3.685-2.48-2.217-2.973c-1.657-0.141-3.422-0.185-5.219-0.319
			c1.949-0.101,3.881-0.213,5.84-0.288c0.93-0.039,1.903-0.025,2.85-0.008c2.346,0.044,4.199,0.327,5.392,0.887
			c0.476,0.221,0.896,0.454,1.287,0.688c1.26,0.767,1.07,1.506-0.626,2.209c-1.877,0.781-4.071,1.489-6.792,2.054
			c-1.215,0.255-2.665,0.47-4.131,0.585c-3.052,0.235-6.176,0.408-9.299,0.573c-3.841,0.199-6.972-0.215-9.311-0.996
			c-1.456-0.484-2.47-1.07-3.539-1.632c-2.156-1.125-1.271-2.292-0.47-3.457c0.884-1.299,2.654-2.472,6.45-3.334
			c4.125-0.93,8.569-1.789,13.928-2.054c5.011-0.246,9.399,0.288,13.101,1.223C147.26,57.611,147.254,57.639,147.254,57.642z"/>
		<path fill-rule="evenodd" clip-rule="evenodd" fill="#F6E0AE" d="M128.823,60.727c1.663-0.545,3.204-1.111,4.978-1.615
			c1.557-0.442,3.74-0.591,5.913-0.627c2.585-0.042,5.194-0.031,7.786,0c1.932,0.022,3.421,0.328,4.664,0.71
			c2.84,0.871,4.731,1.887,5.844,2.999c2.017,2.01,1.268,3.927-2.844,5.725c-1.19,0.523-2.73,0.915-4.791,1.178
			c-5.744,0.731-11.556,1.392-17.877,1.674c-4.108,0.179-8.089,0.076-11.958-0.342c-4.725-0.512-6.862-1.548-7.642-2.833
			c-0.269-0.434-0.308-0.882-0.453-1.321c0.084-0.003,0.174-0.011,0.263-0.014c0.604,0.249,1.13,0.524,1.836,0.75
			c1.042,0.331,2.122,0.658,3.353,0.935c3.058,0.68,6.619,0.856,10.437,0.638c3.146-0.177,6.282-0.381,9.389-0.599
			c2.207-0.159,4.004-0.521,5.667-0.935c2.76-0.694,5.223-1.45,7.009-2.351c1.142-0.583,1.662-1.212,0.907-1.839
			c-0.718-0.596-1.625-1.192-2.823-1.727c-1.656-0.731-4.411-1.019-7.489-1.056c-4.014-0.045-7.867,0.16-11.482,0.649
			c-0.129,0.017-0.258,0.031-0.398,0.045C129.088,60.774,129.049,60.763,128.823,60.727z"/>
		<path fill-rule="evenodd" clip-rule="evenodd" fill="#F6E0AE" d="M125.471,72.987c2.49-0.293,4.725-0.518,6.824-0.809
			c1.35-0.188,2.503-0.479,3.758-0.717c0.38-0.067,0.801-0.128,1.231-0.173c4.231-0.434,8.464-0.868,12.72-1.288
			c5.168-0.513,8.039-1.602,9.914-2.926c3.103-2.18,2.581-4.335-1.057-6.436c-1.109-0.638-2.564-1.239-3.96-1.906
			c0.723,0.029,1.563,0.018,2.273,0.092c2.559,0.286,4.854,0.695,6.729,1.251c1.377,0.412,2.705,0.834,4.064,1.254
			c2.05,0.627,3.18,1.372,3.74,2.184c0.795,1.142,0.846,2.292,0.432,3.443c-0.271,0.719-1.238,1.396-2.895,1.965
			c-3.758,1.291-8.141,2.427-13.622,3.133c-7.178,0.926-14.864,1.385-22.892,1.226C130.387,73.237,128.063,73.094,125.471,72.987z"
			/>
		<path fill-rule="evenodd" clip-rule="evenodd" fill="#F6E0AE" d="M106.307,56.139c2.318-0.929,5.202-1.632,8.364-2.27
			c3.863-0.778,8.358-1.025,12.961-1.179c3.555-0.114,7.127-0.215,10.704-0.28c3.426-0.062,6.762,0.157,9.747,0.585
			c3.482,0.498,6.79,1.091,10.021,1.704c2.659,0.499,4.35,1.243,5.874,2.01c1.646,0.829,3.374,1.643,5.144,2.455
			c1.399,0.644,2.324,1.321,2.419,2.13c-1.662-0.523-3.241-1.002-4.73-1.495c-2.15-0.703-4.849-1.201-7.816-1.606
			c-1.602-0.222-3.275-0.277-5.016-0.18c-1.281,0.076-2.083,0.02-2.935-0.33c-3.42-1.408-8.632-1.982-14.611-2.141
			c-1.405-0.039-2.827-0.057-4.216-0.132c-6.695-0.367-13.284-0.33-19.813,0.266C110.472,55.851,108.479,55.974,106.307,56.139z"/>
		<path fill-rule="evenodd" clip-rule="evenodd" fill="#F6E0AE" d="M131.949,61.956c1.779,0.093,3.615,0.138,5.318,0.297
			c2.4,0.218,2.978,0.94,1.343,1.472c-0.206,0.07-0.419,0.146-0.7,0.19c-2.244,0.35-4.417,0.75-6.785,1.019
			c-2.944,0.33-5.245-0.07-5.654-0.935c-0.135-0.275,0.27-0.571,0.516-0.854c0.089-0.109,0.452-0.201,0.643-0.308
			c1.103-0.585,2.564-0.997,5.375-0.767C131.986,62.032,131.966,61.995,131.949,61.956z"/>
	</g>
	<path fill="#F6E0AE" d="M160.803,162.857c-0.354,0.003-0.706,0.006-1.059,0.006c-11.712,0-22.058,1.789-22.024-6.001
		c-1.886,0.635-4.501,1.321-6.773,2.077c0.022,0.339,0,0.625,0,0.966c0,7.244-5.979,11.588-13.729,14.391
		c11.092,0.955,41.688-2.458,43.81-8.538C161.391,164.719,161.267,163.754,160.803,162.857z"/>
	<path fill="#F6E0AE" d="M149.511,145.371c-3.135-2.449-5.012-5.562-5.012-8.958c0-3.122,1.585-6.027,4.272-8.373
		c32.344-21.319,53.252-54.423,53.399-92.353h-50.684h-34.235h-50.46v3.561c1.405,36.29,21.918,68.212,53.113,88.866
		c2.692,2.384,4.278,5.226,4.278,8.397c0,3.43-1.854,6.534-4.951,9.014c-31.955,21.423-52.513,55.277-52.513,92.947
		c0,0.028,0,0.398,0,0.398h50.532h34.235h50.684c0,0,0-0.375,0-0.4C202.171,200.735,181.546,166.793,149.511,145.371z
		 M186.383,186.666c4.557,7.899,8.067,16.227,10.425,24.801c2.327,8.398,3.55,17.076,3.667,25.708h-48.987h-34.235H68.428
		c0.106-8.632,1.332-17.277,3.638-25.661c2.358-8.552,5.856-16.876,10.397-24.762c4.468-7.759,9.965-15.088,16.32-21.798
		c6.332-6.687,13.537-12.75,21.402-18.021l0.051-0.039l0.061-0.042c3.65-2.926,5.583-6.495,5.583-10.327
		c0-3.508-1.681-6.847-4.85-9.655l-0.083-0.082l-0.102-0.064c-7.944-5.26-15.217-11.278-21.598-17.89
		c-6.428-6.651-11.976-13.918-16.493-21.597c-4.604-7.818-8.158-16.115-10.56-24.617c-2.313-8.207-3.583-16.607-3.762-25.241h48.818
		h34.235h48.969h0.019h-0.019c-0.185,0-1.444,17.062-3.778,25.263c-2.406,8.499-5.979,16.776-10.598,24.581
		c-4.529,7.659-10.111,14.914-16.554,21.554c-6.411,6.595-13.718,12.608-21.689,17.868l-0.096,0.067l-0.089,0.076
		c-3.175,2.771-4.854,6.1-4.854,9.626c0,3.791,2.017,7.446,5.665,10.296l0.045,0.039l0.057,0.034
		c7.876,5.271,15.094,11.34,21.454,18.039C176.396,171.541,181.898,178.889,186.383,186.666z"/>
	<path fill="#F6E0AE" d="M187.866,201.373c-8.007,4.591-17.396,7.056-27.226,7.056c-3.248,0-6.499-0.269-9.703-0.82
		c-3.123-0.535-6.197-1.335-9.187-2.404c-1.545-0.549-3.063-1.198-4.545-1.915c-0.438-0.213-0.88-0.44-1.311-0.675
		c-0.46-0.238-0.925-0.478-1.377-0.733c-0.533-0.282-1.063-0.551-1.608-0.792c-2.115-0.935-4.288-1.752-6.5-2.424
		c-5.362-1.623-11.062-2.471-16.907-2.471c-10.838,0-21.162,2.914-29.795,8.303c-3.28,8.859-5.279,18.134-5.895,27.648h121.324
		C194.423,221.592,191.931,211.227,187.866,201.373z M87.02,212.156c-1.293,0-2.352-1.052-2.352-2.351
		c0-1.296,1.059-2.352,2.352-2.352c1.288,0,2.334,1.056,2.334,2.352C89.354,211.104,88.308,212.156,87.02,212.156z M114.944,229.539
		H91.853v-12.914c0-4.233,5.167-7.664,11.538-7.664c6.383,0,11.554,3.431,11.554,7.664V229.539z M119.302,212.156
		c-1.3,0-2.352-1.052-2.352-2.351c0-1.296,1.052-2.352,2.352-2.352c1.287,0,2.345,1.056,2.345,2.352
		C121.646,211.104,120.589,212.156,119.302,212.156z M145.961,229.539h-23.093v-10.263c0-4.232,5.173-7.67,11.548-7.67
		c6.373,0,11.545,3.438,11.545,7.67V229.539z M150.597,216.621c-1.299,0-2.34-1.05-2.34-2.347c0-1.295,1.041-2.351,2.34-2.351
		s2.347,1.056,2.347,2.351C152.943,215.571,151.896,216.621,150.597,216.621z M177.045,229.539h-23.096v-7.598
		c0-4.235,5.168-7.667,11.539-7.667c6.382,0,11.557,3.433,11.557,7.667V229.539z M179.39,216.621c-1.304,0-2.345-1.05-2.345-2.347
		c0-1.295,1.041-2.351,2.345-2.351c1.294,0,2.341,1.056,2.341,2.351C181.73,215.571,180.684,216.621,179.39,216.621z"/>
	<g>
		<path fill="#F6E0AE" d="M165.488,180.7c6.382,0,11.557,3.432,11.557,7.669v15.217c3.454-1.131,6.763-2.609,9.897-4.378
			c-5.884-13.366-14.695-25.733-25.988-36.268c-0.419-0.008-0.833-0.011-1.248-0.011c-5.851,0-11.545,0.837-16.902,2.441
			c-2.224,0.663-4.383,1.475-6.5,2.399c-0.542,0.238-1.086,0.503-1.606,0.781c-0.466,0.249-0.918,0.493-1.377,0.73
			c-0.443,0.228-0.874,0.454-1.316,0.667c-1.479,0.703-2.995,1.346-4.54,1.892c-2.99,1.059-6.075,1.851-9.188,2.377
			c-3.208,0.542-6.455,0.812-9.701,0.812c-3.779,0-7.493-0.361-11.075-1.061c-6.645,7.987-11.991,16.687-15.933,25.885
			c3.247-1.83,6.69-3.323,10.285-4.454v-4.372c0-4.235,5.167-7.667,11.538-7.667c6.383,0,11.554,3.432,11.554,7.667v2.102
			c2.716,0.285,5.376,0.761,7.985,1.428v-5.067c0-4.238,5.162-7.67,11.543-7.67c6.377,0,11.551,3.432,11.551,7.67v14.5
			c1.752,0.512,3.538,0.932,5.34,1.257c0.857,0.159,1.714,0.294,2.586,0.408V188.37C153.949,184.132,159.117,180.7,165.488,180.7z
			 M119.066,184.171c-1.295,0-2.346-1.053-2.346-2.352c0-1.296,1.051-2.346,2.346-2.346c1.299,0,2.352,1.049,2.352,2.346
			C121.418,183.119,120.365,184.171,119.066,184.171z M150.603,181.82c-1.305,0-2.346-1.05-2.346-2.346
			c0-1.302,1.041-2.352,2.346-2.352c1.293,0,2.341,1.05,2.341,2.352C152.943,180.77,151.896,181.82,150.603,181.82z"/>
	</g>
	<path fill="#F6E0AE" d="M102.863,101.812c0.645-1.366,2.807-5.557,9.008-7.183c6.204-1.627,16.914-0.649,29.152-5.638
		c9.641-3.927,14.411-6.875,16-10.133c-2.553,0.557-5.754,0.974-7.675,1.173c-3.282,0.339-11.797-1.464-16.824-0.395
		c-5.021,1.072-13.772,0.733-16.481,0.792c-2.71,0.056-10.045-0.736-11.174-1.809c-1.12-1.069-5.186-4.851-8.271-5.134
		c-3.084-0.283-11.526,2.071-13.006-2.147c-1.001-2.847-3.538-4.649-5.089-5.523c2.357,6.97,5.527,13.758,9.451,20.205
		c4.093,6.705,9.015,13.067,14.646,18.943C102.438,103.421,102.641,102.293,102.863,101.812z"/>
	<g>
		<path fill="#F6E0AE" d="M144.236,123.008c0.969-0.865,2.129-1.493,3.186-2.223c1.164-0.797,2.301-1.621,3.433-2.455
			c0.772-0.57,1.533-1.147,2.284-1.741c2.895-2.251,5.698-4.613,8.381-7.104c1.494-1.383,2.951-2.802,4.361-4.255
			c6.174-6.354,11.504-13.28,15.833-20.589c3.235-5.456,5.923-11.155,8.033-16.994c-1.003,0.753-1.741,1.212-1.741,1.212
			c-0.739,1.973-3.045,2.029-3.723,3.955c-0.678,1.92-2.604,2.872-7.341,3.72c-4.231,0.753-13.817,0.926-15.82,0.955
			c-0.291,2.276-2.015,7.051-10.682,11.337c-11.892,5.878-15.077,4.82-25.457,9.848c-10.385,5.025-11.364,11.724-10.285,13.958
			c0.969,2.021,2.14,4.876,4.883,7.035c1.333,0.957,2.688,1.892,4.064,2.799l0.392,0.266l0.364,0.316
			c4.183,3.711,6.444,8.238,6.545,13.112h1.673c0.723-0.919,1.592-2.125,2.599-3.707"/>
		<polygon fill="#F6E0AE" points="130.946,144.522 130.946,159.521 137.72,159.521 137.72,140.881 137.658,140.925 		"/>
		<path fill="#F6E0AE" d="M132.352,136.494l-1.395,0.017c0-0.117,0-0.238-0.011-0.352l0,0v1.861
			C131.332,137.65,131.803,137.155,132.352,136.494z"/>
		<path fill="#F6E0AE" d="M132.352,136.494c0.083-0.109,0.173-0.221,0.268-0.335h-1.673c0.011,0.114,0.011,0.235,0.011,0.352
			L132.352,136.494z"/>
	</g>
</g>
<g>
	<path fill="#F6E0AE" d="M291.014,102.089l-12.854,11.343c-4.514-6.281-9.108-9.422-13.786-9.422c-2.277,0-4.14,0.61-5.588,1.829
		c-1.449,1.219-2.174,2.594-2.174,4.122c0,1.529,0.518,2.975,1.553,4.339c1.407,1.819,5.65,5.724,12.729,11.715
		c6.622,5.538,10.638,9.029,12.046,10.476c3.518,3.554,6.012,6.953,7.482,10.196c1.469,3.245,2.204,6.788,2.204,10.631
		c0,7.479-2.586,13.658-7.757,18.533c-5.171,4.876-11.914,7.314-20.229,7.314c-6.495,0-12.152-1.591-16.972-4.773
		s-8.946-8.182-12.38-15l14.589-8.802c4.388,8.058,9.437,12.087,15.148,12.087c2.979,0,5.483-0.868,7.512-2.603
		c2.027-1.736,3.042-3.74,3.042-6.013c0-2.066-0.767-4.132-2.298-6.199c-1.532-2.065-4.905-5.227-10.121-9.483
		c-9.935-8.099-16.352-14.35-19.249-18.75c-2.897-4.401-4.346-8.792-4.346-13.172c0-6.323,2.41-11.747,7.23-16.271
		c4.819-4.525,10.767-6.787,17.842-6.787c4.551,0,8.885,1.054,13.001,3.161S286.213,96.511,291.014,102.089z"/>
	<path fill="#F6E0AE" d="M372.51,89.692h17.602l35.069,91.18h-18.038l-7.134-18.782h-37.206l-7.417,18.782h-18.038L372.51,89.692z
		 M381.419,113.867l-12.233,31.302h24.395L381.419,113.867z"/>
	<path fill="#F6E0AE" d="M482.962,89.692h16.91l21.138,63.597l21.328-63.597h16.9l15.296,91.18H557.75l-9.777-57.584l-19.37,57.584
		h-15.296l-19.199-57.584l-10.01,57.584h-16.923L482.962,89.692z"/>
	<path fill="#F6E0AE" d="M651.691,89.692h17.602l35.069,91.18h-18.038l-7.134-18.782h-37.206l-7.417,18.782h-18.038L651.691,89.692z
		 M660.601,113.867l-12.233,31.302h24.395L660.601,113.867z"/>
	<path fill="#F6E0AE" d="M754.477,89.692h18.389c10.07,0,17.242,0.899,21.515,2.696s7.709,4.784,10.309,8.957
		c2.601,4.174,3.901,9.112,3.901,14.814c0,5.992-1.437,11.002-4.308,15.031c-2.872,4.029-7.2,7.077-12.984,9.143l21.601,40.539
		h-18.974l-20.504-38.617h-1.588v38.617h-17.356V89.692z M771.833,125.334h5.438c5.52,0,9.319-0.726,11.4-2.176
		c2.08-1.451,3.12-3.856,3.12-7.215c0-1.989-0.516-3.72-1.545-5.192c-1.03-1.472-2.41-2.529-4.141-3.172
		c-1.729-0.643-4.901-0.965-9.516-0.965h-4.758V125.334z"/>
	<path fill="#F6E0AE" d="M862.518,89.692h16.648l39.015,60.001V89.692h17.355v91.18H918.84l-38.967-59.816v59.816h-17.355V89.692z"
		/>
	<path fill="#F6E0AE" d="M1000.725,89.692h16.91l21.138,63.597l21.328-63.597h16.9l15.296,91.18h-16.784l-9.777-57.584
		l-19.37,57.584h-15.296l-19.199-57.584l-10.01,57.584h-16.923L1000.725,89.692z"/>
	<path fill="#F6E0AE" d="M1140.397,89.692h17.231v91.18h-17.231V89.692z"/>
	<path fill="#F6E0AE" d="M1203.685,89.692h50.394V106.8h-16.611v74.072h-17.604V106.8h-16.178V89.692z"/>
	<path fill="#F6E0AE" d="M1302.675,89.692h18.389c10.07,0,17.242,0.899,21.515,2.696s7.709,4.784,10.309,8.957
		c2.601,4.174,3.901,9.112,3.901,14.814c0,5.992-1.437,11.002-4.308,15.031c-2.872,4.029-7.2,7.077-12.984,9.143l21.601,40.539
		h-18.974l-20.504-38.617h-1.588v38.617h-17.356V89.692z M1320.031,125.334h5.438c5.52,0,9.319-0.726,11.4-2.176
		c2.08-1.451,3.12-3.856,3.12-7.215c0-1.989-0.516-3.72-1.545-5.192c-1.03-1.472-2.41-2.529-4.141-3.172
		c-1.729-0.643-4.901-0.965-9.516-0.965h-4.758V125.334z"/>
	<path fill="#F6E0AE" d="M1426.212,122.11h-15.62v-8.6c0-5.403,0.671-10.075,2.015-14.015c1.342-3.939,3.604-7.971,6.787-12.097
		l6.074,4.773c-1.529,2.231-2.655,4.153-3.378,5.765c-0.724,1.611-1.437,3.761-2.139,6.446h6.261V122.11z"/>
	<path fill="#F6E0AE" d="M1508.095,87.399l14.784,7.393l-15.962,30.976c7.727,0,14.297,2.769,19.711,8.306
		c5.413,5.538,8.12,12.418,8.12,20.641c0,7.934-2.779,14.66-8.337,20.176c-5.559,5.517-12.264,8.275-20.114,8.275
		c-8.224,0-15.073-2.861-20.548-8.585c-5.477-5.723-8.213-12.283-8.213-19.68c0-2.81,0.423-5.641,1.271-8.492
		c0.847-2.851,2.799-7.231,5.857-13.141L1508.095,87.399z M1505.925,142.194c-3.223,0-5.93,1.168-8.12,3.502
		c-2.19,2.335-3.285,5.259-3.285,8.771c0,3.513,1.147,6.468,3.44,8.864c2.294,2.397,4.969,3.595,8.027,3.595
		c3.223,0,5.991-1.178,8.306-3.533s3.472-5.331,3.472-8.926c0-3.512-1.127-6.436-3.379-8.771
		C1512.134,143.362,1509.313,142.194,1505.925,142.194z"/>
	<path fill="#F6E0AE" d="M1600.019,119.073h-16.922c0.454-9.834,3.543-17.573,9.267-23.213c5.723-5.641,13.068-8.461,22.036-8.461
		c5.536,0,10.423,1.168,14.659,3.502c4.235,2.335,7.624,5.703,10.165,10.104c2.542,4.401,3.813,8.875,3.813,13.42
		c0,5.414-1.541,11.241-4.621,17.48c-3.08,6.24-8.713,13.616-16.898,22.128l-10.232,10.786h32.496v16.054h-63.163v-8.306
		l28.203-28.761c6.818-6.9,11.353-12.448,13.605-16.643c2.252-4.194,3.379-7.986,3.379-11.375c0-3.512-1.169-6.416-3.503-8.709
		c-2.335-2.293-5.341-3.44-9.019-3.44c-3.719,0-6.818,1.385-9.298,4.153C1601.506,110.561,1600.183,114.322,1600.019,119.073z"/>
</g>
</svg>
