<?xml version="1.0" encoding="utf-8"?>
<!-- Generator: Adobe Illustrator 16.0.0, SVG Export Plug-In . SVG Version: 6.00 Build 0)  -->
<!DOCTYPE svg PUBLIC "-//W3C//DTD SVG 1.1//EN" "http://www.w3.org/Graphics/SVG/1.1/DTD/svg11.dtd">
<svg version="1.1" id="Layer_1" xmlns="http://www.w3.org/2000/svg" xmlns:xlink="http://www.w3.org/1999/xlink" x="0px" y="0px"
	 width="256.48px" height="75px" viewBox="117.558 51.993 554 162" enable-background="new 117.558 51.993 554 162"
	 xml:space="preserve">
<g>
	<rect x="-2121.326" y="425.576" fill="#F6E0AE" width="152" height="152"/>
	<rect x="-2121.326" y="607.067" fill="#CE7E7D" width="152" height="152"/>
	<rect x="-1925.639" y="607.067" fill="#5B4450" width="152" height="152"/>
	<rect x="-1927.326" y="425.576" fill="#93A6B4" width="152" height="152"/>
</g>
<g enable-background="new    ">
	<path fill="#5B4450" d="M164.426,123.412h11.602c6.275,0,10.801,0.58,13.574,1.738c2.773,1.159,4.961,3.034,6.563,5.625
		c1.602,2.592,2.402,5.697,2.402,9.316c0,4.011-1.049,7.344-3.145,10c-2.097,2.656-4.941,4.506-8.535,5.547
		c-2.109,0.6-5.951,0.898-11.523,0.898v24.336h-10.938V123.412z M175.364,145.873h3.477c2.734,0,4.635-0.196,5.703-0.588
		c1.067-0.392,1.907-1.038,2.52-1.939c0.611-0.901,0.918-1.992,0.918-3.272c0-2.222-0.859-3.841-2.578-4.86
		c-1.25-0.758-3.568-1.137-6.953-1.137h-3.086V145.873z"/>
	<path fill="#5B4450" d="M236.399,121.967c8.13,0,15.12,2.943,20.971,8.828c5.85,5.886,8.775,13.061,8.775,21.523
		c0,8.386-2.886,15.482-8.658,21.289c-5.772,5.808-12.775,8.711-21.01,8.711c-8.625,0-15.792-2.981-21.499-8.945
		c-5.707-5.963-8.56-13.047-8.56-21.25c0-5.494,1.329-10.547,3.987-15.156s6.313-8.262,10.964-10.957
		C226.021,123.315,231.03,121.967,236.399,121.967z M236.282,132.67c-5.318,0-9.79,1.85-13.413,5.547
		c-3.624,3.698-5.435,8.398-5.435,14.102c0,6.354,2.281,11.381,6.843,15.078c3.545,2.891,7.612,4.336,12.2,4.336
		c5.188,0,9.605-1.875,13.256-5.625c3.649-3.75,5.475-8.372,5.475-13.867c0-5.469-1.838-10.098-5.514-13.887
		C246.018,134.565,241.547,132.67,236.282,132.67z"/>
	<path fill="#5B4450" d="M272.102,123.412h10.76l8.303,36.68l10.259-36.68h9.096l10.411,36.68l8.224-36.68h10.761l-12.946,57.461
		h-10.491l-10.586-37.148L295.5,180.873H285.11L272.102,123.412z"/>
	<path fill="#5B4450" d="M348.489,123.412h31.367v10.703h-20.508v10.391h20.508v10.508h-20.508v15.117h20.508v10.742h-31.367
		V123.412z"/>
	<path fill="#5B4450" d="M390.793,123.412h11.588c6.347,0,10.866,0.566,13.559,1.699s4.858,3.015,6.497,5.645
		c1.639,2.631,2.458,5.742,2.458,9.336c0,3.776-0.905,6.934-2.715,9.473s-4.537,4.46-8.183,5.762l13.612,25.547h-11.957
		l-12.921-24.336h-1.001v24.336h-10.938V123.412z M401.731,145.873h3.427c3.478,0,5.874-0.457,7.184-1.371
		c1.312-0.915,1.967-2.43,1.967-4.547c0-1.254-0.325-2.345-0.974-3.272c-0.649-0.928-1.519-1.593-2.609-1.999
		c-1.09-0.404-3.089-0.607-5.997-0.607h-2.999V145.873z"/>
	<path fill="#5B4450" d="M436.497,123.412h31.367v10.703h-20.508v10.391h20.508v10.508h-20.508v15.117h20.508v10.742h-31.367
		V123.412z"/>
	<path fill="#5B4450" d="M478.098,123.412h12.958c8.352,0,14.557,1.035,18.616,3.105c4.059,2.07,7.402,5.437,10.03,10.098
		c2.628,4.662,3.942,10.104,3.942,16.328c0,4.428-0.735,8.496-2.205,12.207c-1.471,3.711-3.5,6.791-6.089,9.238
		c-2.589,2.448-5.393,4.141-8.411,5.078s-8.248,1.406-15.689,1.406h-13.153V123.412z M488.958,133.959v36.25h5.078
		c5,0,8.626-0.573,10.879-1.721c2.252-1.146,4.095-3.076,5.527-5.787c1.432-2.711,2.148-6.048,2.148-10.011
		c0-6.101-1.706-10.832-5.117-14.195c-3.073-3.023-8.008-4.536-14.805-4.536H488.958z"/>
	<path fill="#5B4450" d="M556.458,180.873v-57.461h9.034c5.241,0,9.074,0.339,11.499,1.016c3.442,0.912,6.18,2.604,8.213,5.078
		c2.034,2.475,3.051,5.391,3.051,8.75c0,2.188-0.463,4.174-1.387,5.957c-0.925,1.784-2.429,3.457-4.512,5.02
		c3.489,1.641,6.041,3.691,7.656,6.152c1.614,2.461,2.422,5.371,2.422,8.73c0,3.229-0.834,6.172-2.503,8.828
		c-1.669,2.656-3.819,4.643-6.452,5.957c-2.633,1.315-6.27,1.973-10.91,1.973H556.458z M567.395,133.842v12.109h2.392
		c2.666,0,4.646-0.56,5.94-1.68c1.294-1.119,1.941-2.643,1.941-4.57c0-1.797-0.615-3.223-1.843-4.277s-3.098-1.582-5.607-1.582
		H567.395z M567.395,155.717v14.727h2.742c4.543,0,7.605-0.572,9.185-1.719c1.58-1.146,2.37-2.813,2.37-5
		c0-2.474-0.927-4.427-2.781-5.859c-1.854-1.432-4.936-2.148-9.244-2.148H567.395z"/>
	<path fill="#5B4450" d="M598.782,123.412h11.743l10.719,20.67l10.67-20.67h11.595l-16.816,32.578v24.883h-11.016V155.99
		L598.782,123.412z"/>
</g>
</svg>
