<?xml version="1.0" encoding="utf-8"?>
<!-- Generator: Adobe Illustrator 16.0.0, SVG Export Plug-In . SVG Version: 6.00 Build 0)  -->
<!DOCTYPE svg PUBLIC "-//W3C//DTD SVG 1.1//EN" "http://www.w3.org/Graphics/SVG/1.1/DTD/svg11.dtd">
<svg version="1.1" id="Layer_1" xmlns="http://www.w3.org/2000/svg" xmlns:xlink="http://www.w3.org/1999/xlink" x="0px" y="0px"
	 width="439.7px" height="75px" viewBox="73.612 312.1 835.458 142.493"
	 enable-background="new 73.612 312.1 835.458 142.493" xml:space="preserve">
<g enable-background="new    ">
	<path d="M158.664,364.85l-11.139,9.83c-3.911-5.443-7.893-8.165-11.947-8.165c-1.973,0-3.587,0.528-4.843,1.585
		c-1.256,1.057-1.883,2.247-1.883,3.571c0,1.326,0.448,2.579,1.345,3.761c1.22,1.576,4.896,4.96,11.03,10.152
		c5.739,4.799,9.219,7.824,10.439,9.078c3.048,3.08,5.209,6.025,6.483,8.836c1.273,2.812,1.91,5.882,1.91,9.212
		c0,6.482-2.241,11.836-6.722,16.062c-4.481,4.226-10.325,6.338-17.53,6.338c-5.628,0-10.531-1.379-14.708-4.136
		c-4.176-2.757-7.752-7.091-10.728-12.999l12.643-7.628c3.802,6.983,8.177,10.475,13.127,10.475c2.582,0,4.752-0.752,6.51-2.256
		c1.757-1.504,2.636-3.241,2.636-5.211c0-1.79-0.664-3.58-1.991-5.371c-1.328-1.79-4.251-4.53-8.771-8.219
		c-8.61-7.019-14.17-12.436-16.681-16.249s-3.766-7.618-3.766-11.415c0-5.479,2.088-10.179,6.266-14.1
		c4.176-3.922,9.331-5.882,15.461-5.882c3.944,0,7.7,0.913,11.267,2.739C150.641,356.685,154.504,360.015,158.664,364.85z"/>
	<path d="M174.457,354.106h43.133v14.718h-28.201v14.288h28.201v14.45h-28.201v20.788h28.201v14.771h-43.133V354.106z"/>
	<path d="M223.821,354.106h43.671v14.825h-14.396v64.19h-15.255v-64.19h-14.02V354.106z"/>
	<path d="M339.31,354.106h15.953c8.63,0,14.853,0.797,18.667,2.391s6.822,4.172,9.024,7.734c2.203,3.564,3.304,7.834,3.304,12.812
		c0,5.515-1.442,10.099-4.324,13.751c-2.883,3.653-6.795,6.196-11.737,7.628c-2.9,0.824-8.183,1.235-15.846,1.235v33.465h-15.04
		V354.106z M354.35,384.993h4.781c3.76,0,6.374-0.27,7.843-0.809c1.468-0.539,2.623-1.428,3.464-2.667
		c0.841-1.24,1.262-2.74,1.262-4.501c0-3.054-1.182-5.281-3.545-6.684c-1.719-1.041-4.907-1.563-9.562-1.563h-4.244V384.993z"/>
	<path d="M401.996,354.106h15.935c8.727,0,14.942,0.778,18.645,2.337c3.702,1.558,6.68,4.145,8.934,7.762
		c2.253,3.617,3.38,7.896,3.38,12.838c0,5.192-1.245,9.534-3.733,13.026c-2.489,3.491-6.24,6.133-11.252,7.923l18.718,35.13h-16.442
		l-17.768-33.465h-1.376v33.465h-15.041V354.106z M417.037,384.993h4.712c4.783,0,8.077-0.629,9.879-1.887
		c1.803-1.257,2.705-3.341,2.705-6.252c0-1.724-0.447-3.224-1.339-4.499c-0.893-1.275-2.089-2.191-3.588-2.749
		c-1.499-0.557-4.248-0.836-8.247-0.836h-4.123V384.993z"/>
	<path d="M502.095,352.119c11.18,0,20.792,4.047,28.836,12.14c8.045,8.093,12.068,17.959,12.068,29.597
		c0,11.531-3.969,21.29-11.906,29.275c-7.938,7.986-17.568,11.979-28.891,11.979c-11.861,0-21.715-4.1-29.563-12.301
		c-7.848-8.2-11.771-17.941-11.771-29.222c0-7.555,1.827-14.503,5.482-20.841c3.655-6.339,8.681-11.361,15.077-15.067
		C487.824,353.972,494.713,352.119,502.095,352.119z M501.934,366.837c-7.313,0-13.461,2.543-18.444,7.628
		c-4.983,5.085-7.474,11.549-7.474,19.391c0,8.738,3.136,15.65,9.41,20.734c4.875,3.976,10.467,5.963,16.776,5.963
		c7.133,0,13.209-2.578,18.228-7.735c5.02-5.156,7.528-11.513,7.528-19.069c0-7.52-2.527-13.885-7.582-19.096
		C515.322,369.442,509.175,366.837,501.934,366.837z"/>
	<path d="M557.234,354.106h17.818c11.484,0,20.018,1.424,25.6,4.271s10.18,7.476,13.793,13.886
		c3.614,6.41,5.422,13.895,5.422,22.453c0,6.088-1.012,11.683-3.033,16.786c-2.021,5.103-4.813,9.338-8.373,12.703
		c-3.561,3.366-7.415,5.694-11.565,6.983s-11.341,1.934-21.574,1.934h-18.087V354.106z M572.167,368.609v49.849h6.983
		c6.875,0,11.861-0.788,14.959-2.366c3.098-1.577,5.631-4.23,7.602-7.958c1.969-3.729,2.954-8.317,2.954-13.767
		c0-8.388-2.346-14.896-7.036-19.52c-4.227-4.158-11.012-6.238-20.359-6.238H572.167z"/>
	<path d="M633.672,354.106h15.094v51.096c0,4.401,0.385,7.515,1.156,9.339c0.77,1.825,2.041,3.284,3.813,4.375
		c1.773,1.091,3.912,1.637,6.42,1.637c2.648,0,4.932-0.607,6.848-1.825c1.916-1.216,3.242-2.764,3.977-4.642
		c0.732-1.879,1.1-5.466,1.1-10.762v-49.218h15.096v47.108c0,7.95-0.449,13.465-1.344,16.545c-0.896,3.08-2.605,6.052-5.129,8.916
		c-2.525,2.866-5.436,4.987-8.73,6.365c-3.295,1.379-7.125,2.068-11.494,2.068c-5.73,0-10.717-1.315-14.961-3.948
		c-4.242-2.632-7.277-5.926-9.104-9.884c-1.826-3.956-2.74-10.644-2.74-20.063V354.106z"/>
	<path d="M777.254,367.992l-10.52,10.028c-7.156-7.563-15.207-11.345-24.15-11.345c-7.551,0-13.91,2.581-19.08,7.742
		c-5.17,5.162-7.754,11.525-7.754,19.089c0,5.27,1.145,9.947,3.434,14.034c2.289,4.086,5.527,7.294,9.715,9.624
		c4.186,2.33,8.838,3.495,13.953,3.495c4.365,0,8.354-0.815,11.969-2.446c3.613-1.631,7.584-4.598,11.914-8.898l10.197,10.64
		c-5.838,5.697-11.354,9.646-16.545,11.851c-5.193,2.202-11.119,3.304-17.779,3.304c-12.283,0-22.338-3.895-30.162-11.683
		c-7.824-7.789-11.736-17.771-11.736-29.947c0-7.877,1.781-14.879,5.344-21.002c3.564-6.124,8.666-11.048,15.311-14.772
		c6.643-3.724,13.795-5.586,21.459-5.586c6.518,0,12.793,1.376,18.826,4.129C767.684,359.001,772.885,362.917,777.254,367.992z"/>
	<path d="M782.625,354.106h43.672v14.825H811.9v64.19h-15.256v-64.19h-14.02V354.106z"/>
	<path d="M878.078,364.85l-11.139,9.83c-3.912-5.443-7.893-8.165-11.947-8.165c-1.973,0-3.588,0.528-4.844,1.585
		c-1.254,1.057-1.883,2.247-1.883,3.571c0,1.326,0.449,2.579,1.346,3.761c1.219,1.576,4.896,4.96,11.029,10.152
		c5.74,4.799,9.221,7.824,10.439,9.078c3.049,3.08,5.211,6.025,6.484,8.836c1.273,2.812,1.91,5.882,1.91,9.212
		c0,6.482-2.24,11.836-6.723,16.062c-4.48,4.226-10.324,6.338-17.529,6.338c-5.629,0-10.531-1.379-14.707-4.136
		s-7.752-7.091-10.729-12.999l12.643-7.628c3.803,6.983,8.178,10.475,13.127,10.475c2.582,0,4.752-0.752,6.51-2.256
		s2.637-3.241,2.637-5.211c0-1.79-0.664-3.58-1.99-5.371c-1.328-1.79-4.252-4.53-8.771-8.219
		c-8.609-7.019-14.17-12.436-16.682-16.249s-3.766-7.618-3.766-11.415c0-5.479,2.088-10.179,6.266-14.1
		c4.176-3.922,9.33-5.882,15.461-5.882c3.945,0,7.701,0.913,11.268,2.739S873.918,360.015,878.078,364.85z"/>
</g>
</svg>
