<?xml version="1.0" encoding="utf-8"?>
<!-- Generator: Adobe Illustrator 16.0.0, SVG Export Plug-In . SVG Version: 6.00 Build 0)  -->
<!DOCTYPE svg PUBLIC "-//W3C//DTD SVG 1.1//EN" "http://www.w3.org/Graphics/SVG/1.1/DTD/svg11.dtd">
<svg version="1.1" id="Layer_1" xmlns="http://www.w3.org/2000/svg" xmlns:xlink="http://www.w3.org/1999/xlink" x="0px" y="0px"
	 width="345.94px" height="75px" viewBox="0 258.5 1024 222" enable-background="new 0 258.5 1024 222" xml:space="preserve">
<g enable-background="new    ">
	<path d="M67.437,364.85l-11.139,9.83c-3.911-5.443-7.893-8.165-11.947-8.165c-1.973,0-3.587,0.528-4.843,1.585
		c-1.256,1.057-1.883,2.247-1.883,3.571c0,1.326,0.448,2.579,1.345,3.761c1.22,1.576,4.896,4.96,11.03,10.152
		c5.739,4.799,9.219,7.824,10.439,9.078c3.048,3.08,5.209,6.025,6.483,8.836c1.273,2.812,1.91,5.882,1.91,9.212
		c0,6.482-2.241,11.836-6.722,16.062c-4.481,4.226-10.325,6.338-17.53,6.338c-5.628,0-10.531-1.379-14.708-4.136
		c-4.176-2.757-7.752-7.091-10.728-12.999l12.643-7.628c3.802,6.983,8.177,10.475,13.127,10.475c2.582,0,4.752-0.752,6.51-2.256
		c1.757-1.504,2.636-3.241,2.636-5.211c0-1.79-0.664-3.58-1.991-5.371c-1.328-1.79-4.251-4.53-8.771-8.219
		c-8.61-7.019-14.17-12.436-16.681-16.249s-3.766-7.618-3.766-11.415c0-5.479,2.088-10.179,6.266-14.1
		c4.176-3.922,9.331-5.882,15.461-5.882c3.944,0,7.7,0.913,11.267,2.739C59.414,356.685,63.277,360.015,67.437,364.85z"/>
	<path d="M82.101,354.106h14.933v79.016H82.101V354.106z"/>
	<path d="M114.008,354.106h14.428l33.809,51.997v-51.997h15.041v79.016h-14.469l-33.768-51.836v51.836h-15.04V354.106z"/>
	<path d="M268.28,366.998l-10.591,10.475c-6.703-7.091-14.516-10.636-23.44-10.636c-7.778,0-14.292,2.578-19.543,7.735
		c-5.251,5.156-7.876,11.424-7.876,18.8c0,7.628,2.724,14.093,8.173,19.392c5.449,5.301,12.171,7.95,20.166,7.95
		c5.198,0,9.581-1.092,13.147-3.276c3.567-2.185,6.443-5.604,8.631-10.26h-22.883V393.05h39.75l0.107,3.331
		c0,6.911-1.791,13.465-5.372,19.659c-3.582,6.196-8.219,10.923-13.913,14.182c-5.694,3.258-12.373,4.888-20.036,4.888
		c-8.201,0-15.516-1.781-21.943-5.345c-6.428-3.563-11.514-8.639-15.255-15.229c-3.743-6.588-5.613-13.697-5.613-21.325
		c0-10.456,3.456-19.552,10.367-27.287c8.2-9.203,18.872-13.805,32.015-13.805c6.875,0,13.303,1.271,19.284,3.813
		C258.503,358.081,263.445,361.771,268.28,366.998z"/>
	<path d="M287.725,354.106h15.04v64.674h21.916v14.342h-36.956V354.106z"/>
	<path d="M336.176,354.106h43.133v14.718h-28.201v14.288h28.201v14.45h-28.201v20.788h28.201v14.771h-43.133V354.106z"/>
	<path d="M454.834,354.106h15.953c8.63,0,14.853,0.797,18.667,2.391s6.822,4.172,9.024,7.734c2.203,3.564,3.304,7.834,3.304,12.812
		c0,5.515-1.442,10.099-4.324,13.751c-2.883,3.653-6.795,6.196-11.737,7.628c-2.9,0.824-8.183,1.235-15.846,1.235v33.465h-15.04
		V354.106z M469.874,384.993h4.781c3.76,0,6.374-0.27,7.843-0.809c1.468-0.539,2.623-1.428,3.464-2.667
		c0.841-1.24,1.262-2.74,1.262-4.501c0-3.054-1.182-5.281-3.545-6.684c-1.719-1.041-4.907-1.563-9.562-1.563h-4.244V384.993z"/>
	<path d="M517.521,354.106h15.935c8.727,0,14.941,0.778,18.645,2.337c3.701,1.558,6.68,4.145,8.934,7.762s3.381,7.896,3.381,12.838
		c0,5.192-1.244,9.534-3.734,13.026c-2.488,3.491-6.238,6.133-11.25,7.923l18.717,35.13h-16.441l-17.768-33.465h-1.377v33.465
		h-15.04V354.106z M532.561,384.993h4.713c4.783,0,8.076-0.629,9.879-1.887c1.803-1.257,2.705-3.341,2.705-6.252
		c0-1.724-0.447-3.224-1.34-4.499s-2.088-2.191-3.588-2.749c-1.498-0.557-4.248-0.836-8.246-0.836h-4.123V384.993z"/>
	<path d="M617.619,352.119c11.18,0,20.793,4.047,28.838,12.14s12.066,17.959,12.066,29.597c0,11.531-3.969,21.29-11.906,29.275
		c-7.938,7.986-17.566,11.979-28.891,11.979c-11.861,0-21.715-4.1-29.563-12.301c-7.848-8.2-11.771-17.941-11.771-29.222
		c0-7.555,1.826-14.503,5.482-20.841c3.654-6.339,8.682-11.361,15.078-15.067C603.348,353.972,610.236,352.119,617.619,352.119z
		 M617.459,366.837c-7.314,0-13.463,2.543-18.445,7.628s-7.473,11.549-7.473,19.391c0,8.738,3.137,15.65,9.41,20.734
		c4.875,3.976,10.467,5.963,16.775,5.963c7.133,0,13.209-2.578,18.229-7.735c5.02-5.156,7.529-11.513,7.529-19.069
		c0-7.52-2.529-13.885-7.584-19.096C630.848,369.442,624.699,366.837,617.459,366.837z"/>
	<path d="M672.758,354.106h17.818c11.486,0,20.02,1.424,25.6,4.271c5.582,2.847,10.18,7.476,13.793,13.886
		c3.615,6.41,5.422,13.895,5.422,22.453c0,6.088-1.012,11.683-3.033,16.786c-2.021,5.103-4.813,9.338-8.373,12.703
		c-3.559,3.366-7.414,5.694-11.564,6.983s-11.342,1.934-21.574,1.934h-18.088V354.106z M687.691,368.609v49.849h6.982
		c6.875,0,11.861-0.788,14.961-2.366c3.096-1.577,5.631-4.23,7.6-7.958c1.969-3.729,2.955-8.317,2.955-13.767
		c0-8.388-2.346-14.896-7.037-19.52c-4.227-4.158-11.012-6.238-20.357-6.238H687.691z"/>
	<path d="M749.195,354.106h15.094v51.096c0,4.401,0.385,7.515,1.156,9.339c0.77,1.825,2.041,3.284,3.813,4.375
		c1.773,1.091,3.912,1.637,6.42,1.637c2.648,0,4.932-0.607,6.848-1.825c1.916-1.216,3.242-2.764,3.977-4.642
		c0.732-1.879,1.1-5.466,1.1-10.762v-49.218h15.096v47.108c0,7.95-0.449,13.465-1.344,16.545c-0.896,3.08-2.605,6.052-5.129,8.916
		c-2.525,2.866-5.436,4.987-8.73,6.365c-3.295,1.379-7.125,2.068-11.494,2.068c-5.73,0-10.717-1.315-14.961-3.948
		c-4.242-2.632-7.277-5.926-9.104-9.884c-1.826-3.956-2.74-10.644-2.74-20.063V354.106z"/>
	<path d="M892.777,367.992l-10.518,10.028c-7.156-7.563-15.207-11.345-24.152-11.345c-7.549,0-13.908,2.581-19.078,7.742
		c-5.17,5.162-7.756,11.525-7.756,19.089c0,5.27,1.145,9.947,3.436,14.034c2.289,4.086,5.527,7.294,9.713,9.624
		c4.188,2.33,8.838,3.495,13.955,3.495c4.363,0,8.354-0.815,11.967-2.446s7.586-4.598,11.916-8.898l10.195,10.64
		c-5.836,5.697-11.352,9.646-16.543,11.851c-5.193,2.202-11.119,3.304-17.781,3.304c-12.283,0-22.336-3.895-30.16-11.683
		c-7.826-7.789-11.738-17.771-11.738-29.947c0-7.877,1.781-14.879,5.346-21.002c3.563-6.124,8.666-11.048,15.309-14.772
		c6.643-3.724,13.797-5.586,21.459-5.586c6.518,0,12.793,1.376,18.828,4.129C883.207,359.001,888.408,362.917,892.777,367.992z"/>
	<path d="M898.148,354.106h43.672v14.825h-14.396v64.19h-15.256v-64.19h-14.02V354.106z"/>
	<path d="M993.604,364.85l-11.141,9.83c-3.91-5.443-7.893-8.165-11.945-8.165c-1.975,0-3.588,0.528-4.844,1.585
		s-1.883,2.247-1.883,3.571c0,1.326,0.447,2.579,1.346,3.761c1.219,1.576,4.896,4.96,11.029,10.152
		c5.738,4.799,9.219,7.824,10.439,9.078c3.049,3.08,5.209,6.025,6.484,8.836c1.271,2.812,1.91,5.882,1.91,9.212
		c0,6.482-2.242,11.836-6.723,16.062s-10.324,6.338-17.529,6.338c-5.629,0-10.531-1.379-14.707-4.136
		c-4.178-2.757-7.754-7.091-10.729-12.999l12.643-7.628c3.801,6.983,8.178,10.475,13.127,10.475c2.582,0,4.752-0.752,6.51-2.256
		s2.635-3.241,2.635-5.211c0-1.79-0.662-3.58-1.99-5.371c-1.328-1.79-4.25-4.53-8.771-8.219c-8.609-7.019-14.17-12.436-16.68-16.249
		c-2.512-3.813-3.766-7.618-3.766-11.415c0-5.479,2.088-10.179,6.264-14.1c4.178-3.922,9.332-5.882,15.463-5.882
		c3.943,0,7.699,0.913,11.266,2.739C985.58,356.685,989.443,360.015,993.604,364.85z"/>
</g>
</svg>
